<?xml version="1.0" encoding="utf-8"?>
<!-- Generator: Adobe Illustrator 16.0.0, SVG Export Plug-In . SVG Version: 6.00 Build 0)  -->
<!DOCTYPE svg PUBLIC "-//W3C//DTD SVG 1.1//EN" "http://www.w3.org/Graphics/SVG/1.1/DTD/svg11.dtd">
<svg version="1.1" xmlns="http://www.w3.org/2000/svg" xmlns:xlink="http://www.w3.org/1999/xlink" x="0px" y="0px" width="98px"
	 height="60.549px" viewBox="0 0 98 60.549" enable-background="new 0 0 98 60.549" xml:space="preserve">
<g id="Layer_1" display="none">
	<g id="department" transform="translate(-51.063 -375.69)" display="inline">
		<g id="Component_54_1" transform="translate(51.063 417.239)">
			<text transform="matrix(1 0 0 1 0 17.9998)" fill="#EF2929" font-family="'ArialMT'" font-size="18.5">Department</text>
		</g>
		<g id="Layer_6" transform="translate(-579.551 229.793)">
			<g id="Group_61" transform="translate(659.552 145.897)">
				<path id="Path_41" fill="#EF2929" d="M20.548,0.001h16.14c1.374,0,1.946,0.759,1.569,2.073
					c-0.709,2.472-1.407,4.948-2.133,7.415c-0.117,0.4-0.086,0.56,0.346,0.735c3.234,1.238,5.074,4.659,4.324,8.04
					c-0.589,2.309-2.349,4.137-4.634,4.813c-0.446,0.152-0.522,0.34-0.521,0.752c0.013,4.368,0,8.734,0.011,13.1
					c0.046,0.546-0.228,1.068-0.7,1.344c-0.436,0.271-0.989,0.257-1.41-0.035c-0.453-0.306-0.699-0.836-0.643-1.379
					c0.008-4.312-0.008-8.621,0.021-12.932c0.07-0.464-0.239-0.9-0.701-0.987c-2.508-0.831-4.339-2.998-4.739-5.61
					c-0.042-0.244-0.063-0.491-0.063-0.739c-0.061-0.756,0.504-1.417,1.26-1.478c0.756-0.061,1.418,0.503,1.479,1.259
					c0.004,0.05,0.005,0.1,0.003,0.15c0.008,0.554,0.106,1.103,0.294,1.624c0.891,2.073,3.293,3.031,5.366,2.141
					c1.19-0.512,2.067-1.558,2.364-2.819c0.592-2.075-0.609-4.237-2.685-4.829c-0.45-0.128-0.919-0.175-1.386-0.138
					c-5.379-0.038-10.757-0.051-16.136-0.078c-3.643-0.018-7.286-0.057-10.928-0.057c-2.3-0.114-4.257,1.658-4.371,3.958
					c-0.021,0.42,0.022,0.84,0.127,1.248c0.497,2.113,2.596,3.438,4.717,2.978c1.989-0.234,3.47-1.95,3.41-3.952
					c-0.069-0.754,0.487-1.421,1.241-1.49c0.086-0.008,0.173-0.007,0.259,0.001c3.586-0.005,7.172-0.005,10.757,0
					c0.758-0.056,1.416,0.512,1.473,1.27s-0.512,1.417-1.27,1.473c-0.069,0.005-0.14,0.005-0.209,0c-3.033,0.006-6.066,0.006-9.1,0
					c-0.336-0.061-0.659,0.163-0.719,0.5c0,0,0,0,0,0c-0.701,2.247-2.463,4.004-4.712,4.7c-0.318,0.054-0.534,0.355-0.48,0.674
					c0,0.001,0,0.002,0,0.003c0.014,4.406,0.017,8.812,0.007,13.218c0.069,0.758-0.488,1.429-1.246,1.498
					c-0.447,0.042-0.886-0.138-1.176-0.479c-0.251-0.34-0.369-0.76-0.328-1.181c0.005-4.31,0-8.621,0.014-12.931
					c0.072-0.392-0.187-0.769-0.579-0.842c-3.207-1.048-5.22-4.225-4.8-7.573c0.354-2.152,1.734-3.996,3.7-4.941
					c0.182-0.1,0.372-0.194,0.563-0.28C5.071,9.881,5.068,9.884,4.838,9.08C4.155,6.699,3.475,4.318,2.797,1.936
					C2.487,1.237,2.802,0.419,3.5,0.109c0.234-0.104,0.493-0.141,0.748-0.106C9.681-0.002,15.115-0.002,20.548,0.001z M20.567,2.749
					c-4.711,0-9.423-0.003-14.134-0.008c-0.423,0-0.569,0.048-0.427,0.522c0.589,1.971,1.149,3.952,1.7,5.934
					c0.1,0.344,0.261,0.427,0.6,0.428c8.125,0.033,16.251,0.077,24.377,0.132c0.451,0,0.579-0.182,0.682-0.554
					c0.549-1.964,1.1-3.927,1.686-5.879c0.152-0.505,0.035-0.589-0.461-0.587c-4.672,0.019-9.342,0.011-14.019,0.012H20.567z"/>
				<path id="Path_42" fill="#EF2929" d="M10.925,32.868c0-1.301,0-2.594,0-3.891c-0.073-2.275,1.712-4.178,3.987-4.25
					c2.275-0.073,4.178,1.712,4.25,3.987c0.003,0.086,0.003,0.172,0,0.257c0.006,2.671,0.006,5.341,0,8.011
					c0.048,0.758-0.527,1.41-1.284,1.459c-0.467,0.029-0.918-0.181-1.195-0.559c-0.201-0.305-0.295-0.666-0.267-1.029
					c0.004-2.652,0.004-5.303,0-7.955c0-1-0.421-1.43-1.367-1.43c-0.946,0-1.372,0.423-1.374,1.423c-0.007,2.689,0,5.379,0,8.068
					c0.055,0.634-0.336,1.221-0.942,1.414c-0.539,0.194-1.141,0.019-1.491-0.435c-0.225-0.287-0.337-0.648-0.315-1.013
					C10.929,35.576,10.925,34.222,10.925,32.868z"/>
				<path id="Path_43" fill="#EF2929" d="M21.912,32.825c0-1.278,0-2.556,0-3.834c-0.08-2.275,1.699-4.185,3.975-4.265
					c2.275-0.08,4.185,1.699,4.265,3.974c0.003,0.085,0.003,0.17,0.001,0.255c0.008,2.632,0,5.265,0,7.899
					c0.119,0.758-0.398,1.468-1.156,1.587c-0.757,0.118-1.467-0.399-1.586-1.156c-0.021-0.137-0.022-0.276-0.003-0.413
					c0-2.67,0-5.342,0-8.011c0-0.984-0.442-1.4-1.409-1.387c-0.916,0.013-1.328,0.436-1.33,1.408c-0.008,2.689,0,5.379-0.006,8.068
					c0.074,0.751-0.473,1.421-1.225,1.496c-0.239,0.024-0.48-0.016-0.7-0.114c-0.526-0.224-0.854-0.756-0.819-1.327
					C21.916,35.61,21.914,34.218,21.912,32.825z"/>
				<path id="Path_44" fill="#EF2929" d="M8.176,16.473c0.005,0.757-0.605,1.376-1.362,1.381c-0.758,0.005-1.376-0.604-1.382-1.362
					c-0.005-0.75,0.593-1.366,1.344-1.381c0.761-0.012,1.388,0.595,1.4,1.356C8.176,16.469,8.176,16.471,8.176,16.473z"/>
				<path id="Path_45" fill="#EF2929" d="M34.32,15.111c0.758,0.026,1.351,0.661,1.325,1.418c-0.026,0.757-0.661,1.35-1.418,1.325
					c-0.751-0.025-1.343-0.651-1.325-1.403C32.925,15.689,33.559,15.09,34.32,15.111z"/>
			</g>
		</g>
	</g>
	<g display="inline">
		<g id="Layer_1_2_" display="none">
			<g id="Layer_1_1_" display="inline">
				<g>
					<path fill="#064ADA" d="M-72.299,112.177c42.235-0.002,84.47-0.022,126.703,0.014c9.453,0.01,15.065,8.384,10.885,16.151
						c-2.146,3.986-5.643,5.878-10.169,5.878c-7.345-0.001-14.69-0.067-22.035,0.033c-8.513,0.114-16.015,2.703-19.436,11.147
						c-3.632,8.96-3.469,18.083,2.707,26.112c3.92,5.098,9.797,6.61,15.954,6.738c7.343,0.154,14.69,0.017,22.034,0.066
						c7.26,0.05,12.163,4.417,12.26,10.824c0.1,6.63-4.843,11.202-12.343,11.204c-84.163,0.017-168.326,0.074-252.488-0.035
						c-23.466-0.03-43.864-20.95-43.772-44.348c0.091-23.08,20.632-43.699,43.915-43.756
						C-156.155,112.102-114.227,112.178-72.299,112.177z M-5.173,178.303c0.105-0.848,0.181-1.016,0.13-1.131
						c-0.423-0.979-0.859-1.953-1.312-2.919c-5.596-11.951-5.794-24.008,0.056-35.824c2.088-4.222,0.54-4.258-2.937-4.25
						c-34.872,0.074-69.745,0.046-104.618,0.048c-28.142,0.002-56.285-0.051-84.426,0.034c-12.271,0.037-19.34,5.854-21.355,17.155
						c-1.925,10.785,2.06,20.482,10.151,24.49c3.919,1.94,8.148,2.414,12.485,2.413c62.556-0.021,125.112-0.016,187.668-0.017
						C-7.976,178.303-6.622,178.303-5.173,178.303z"/>
					<path fill="#064ADA" d="M-92.464,35.018c30.603-0.004,61.205-0.03,91.806,0.008c14.857,0.019,29.168,11.012,33.044,25.243
						c3.757,13.795-3.305,29.009-17.014,36.683c-4.614,2.581-9.5,4.204-14.836,4.204c-62.12,0.005-124.243,0.019-186.363-0.021
						c-9.407-0.006-14.975-8.533-10.7-16.259c2.188-3.957,5.711-5.787,10.234-5.772c6.885,0.022,13.771,0.033,20.656-0.006
						c8.405-0.047,11.836-3.301,11.802-11.099c-0.036-7.754-3.424-10.87-11.983-10.922c-6.732-0.04-13.465,0.04-20.197-0.025
						c-7.09-0.067-11.987-4.734-11.881-11.191c0.103-6.264,4.918-10.809,11.796-10.818C-154.892,34.994-123.678,35.02-92.464,35.018
						z M-133.852,57.067c1.938,6.373,3.13,12.416,0.938,18.42c-1.264,3.46,0.256,3.658,3.065,3.654
						c43.292-0.058,86.581-0.02,129.873-0.054c8.47-0.008,12.014-3.925,11.444-12.333c-0.462-6.822-3.847-9.669-11.818-9.675
						c-42.985-0.025-85.97-0.013-128.955-0.013C-130.657,57.067-132.009,57.067-133.852,57.067z"/>
					<path fill="#064ADA" d="M-87.874,24.003c-29.85-0.043-56.624-28.071-54.824-57.854c1.553-25.707,25.866-43.28,48.375-35.205
						c3.644,1.306,3.801-0.166,4.046-3.258c1.169-14.729,8.551-25.721,21.587-32.381c10.455-5.341,18.383,0.257,17.755,12.02
						c-0.379,7.082-3.373,13.248-7.424,18.952c-1.017,1.431-2.641,2.638,0.481,3.994c17.176,7.462,26.895,24.28,25.167,43.113
						C-35.209,0.612-60.744,24.042-87.874,24.003z M-120.73-31.921c-0.175,4.807,0.61,9.471,2.298,13.949
						c5.27,13.98,20.108,22.124,35.677,19.65c16.805-2.668,27.429-14.26,28.09-30.645c0.137-3.38-0.034-6.718-0.971-10.001
						c-2.862-10.029-13.682-13.919-22.141-7.932c-9.097,6.439-10.004,6.424-19.575,0.476c-2.065-1.282-4.278-2.415-6.556-3.255
						c-7.101-2.615-12.802,0.185-15.176,7.389C-120.188-38.939-120.898-35.488-120.73-31.921z"/>
				</g>
			</g>
			<g id="Layer_2" display="inline">
				<g>
					<path fill="#064ADA" d="M-185.8,21.109c0.001-25.31-0.007-50.62,0.003-75.931c0.005-13.889,10.867-24.707,24.804-24.713
						c21.648-0.009,43.297,0.05,64.944-0.054c3.771-0.019,6.512,1.316,9,4.078c7.565,8.4,15.33,16.621,22.937,24.984
						c1.347,1.48,2.724,2.065,4.738,2.059c21.864-0.072,43.727-0.047,65.592-0.046c14.538,0.001,25.175,10.711,25.173,25.323
						c-0.005,22.295,0.02,44.589-0.014,66.884c-0.011,6.798-6.157,10.77-11.621,7.563c-3.015-1.77-3.917-4.57-3.909-7.955
						c0.053-21.971,0.027-43.942,0.025-65.914c0-1.186,0.044-2.374-0.034-3.554c-0.288-4.322-2.4-6.462-6.69-6.783
						c-1.072-0.08-2.152-0.044-3.229-0.044c-23.156-0.002-46.313-0.055-69.469,0.052c-3.746,0.017-6.55-1.141-9.064-3.924
						c-7.648-8.47-15.5-16.758-23.193-25.188c-1.265-1.387-2.523-2.013-4.429-2.006c-20.572,0.064-41.143,0.026-61.713,0.054
						c-6.156,0.008-8.321,2.201-8.324,8.429c-0.014,51.267-0.013,102.534,0.001,153.801c0.002,6.187,2.201,8.39,8.365,8.393
						c27.787,0.016,55.576,0.027,83.361-0.019c3.238-0.005,5.995,0.764,7.818,3.578c1.58,2.438,1.779,5.059,0.417,7.672
						c-1.473,2.832-3.876,4.269-7.059,4.284c-6.032,0.031-12.063,0.011-18.094,0.011c-21.971-0.001-43.942,0.007-65.914-0.006
						c-13.454-0.01-24.404-10.954-24.417-24.449C-185.817,72.162-185.8,46.635-185.8,21.109z"/>
					<path fill="#094CDA" d="M15.872,88.332c-2.54,1.3-4.603,2.385-6.692,3.413c-1.268,0.623-1.046,1.75-1.048,2.799
						c-0.013,6.03-0.145,12.063,0.038,18.088c0.131,4.371-1.61,7.16-5.407,9.396c-8.242,4.852-16.818,8.019-26.542,7.878
						c-10.13-0.147-18.699-4.531-27.09-9.444c-2.414-1.413-3.097-3.976-3.081-6.73c0.041-6.245-0.065-12.492,0.056-18.735
						c0.039-1.991-0.579-3.1-2.397-3.984c-5.417-2.636-10.713-5.517-16.11-8.197c-3.113-1.548-4.828-3.928-4.773-7.393
						c0.052-3.339,1.837-5.562,4.795-7.057c13.157-6.654,26.229-13.479,39.444-20.016c6.531-3.23,13.431-3.253,19.962-0.041
						c13.421,6.604,26.701,13.491,40.034,20.274c2.845,1.446,4.325,3.771,4.325,6.995c0,7.645,0.046,15.29-0.014,22.935
						c-0.039,4.812-3.304,8.133-7.779,8.103c-4.501-0.032-7.624-3.309-7.711-8.183C15.827,95.244,15.872,92.052,15.872,88.332z
						 M6.598,75.583c-9.553-4.825-18.376-9.279-27.196-13.735c-1.934-0.978-3.73-0.508-5.543,0.419
						c-7.855,4.019-15.731,7.995-23.586,12.016c-0.7,0.359-1.736,0.392-1.896,1.7c8.779,4.44,17.593,8.903,26.411,13.357
						c1.428,0.722,2.926,0.832,4.358,0.112C-11.937,84.971-3.037,80.456,6.598,75.583z M-38.413,100.295
						c0,2.909,0.024,5.372-0.012,7.834c-0.015,0.978,0.393,1.555,1.222,2.058c7.151,4.329,14.591,6.184,22.783,3.129
						c6.805-2.537,7.209-3.153,7.07-10.399c-0.048-2.46-0.856-2.491-2.62-1.46c-5.314,3.112-11.032,4.096-17.114,3.253
						C-31.001,104.165-34.317,102.08-38.413,100.295z"/>
				</g>
			</g>
			<g id="Layer_3" display="inline">
				<g>
					<path fill="#084CDA" d="M79.734,128.203c-22.234,0.292-41.77-7.212-59.329-20.439c-2.111-1.59-3.232-3.719-3.233-6.376
						c-0.006-20.14-0.076-40.281,0.04-60.422c0.038-6.478,6.138-9.546,12.395-6.431c8.283,4.123,16.526,8.33,24.795,12.481
						c6.636,3.328,13.311,6.582,19.919,9.961c3.346,1.711,6.515,1.65,9.869-0.031c28.275-14.178,56.581-28.302,84.878-42.443
						c0.481-0.241,0.983-0.453,1.427-0.754c0.66-0.446,1.828-0.471,1.689-1.648c-0.106-0.901-1.043-1.009-1.681-1.329
						c-8.454-4.266-16.916-8.514-25.384-12.749c-20.112-10.06-40.252-20.068-60.324-30.201c-3.795-1.915-7.254-1.959-11.057-0.045
						C45.096-17.814,16.41-3.486-12.269,10.855c-4.914,2.458-9.536,1.278-11.646-2.915c-2.123-4.219-0.355-8.483,4.724-11.027
						C9.675-17.549,38.526-32.04,67.451-46.383c7.674-3.807,15.735-3.858,23.401-0.063c29.029,14.376,57.96,28.95,86.933,43.439
						c6.248,3.125,9.848,8.288,9.898,15.118c0.051,6.975-3.586,12.236-9.941,15.415c-11.162,5.585-22.291,11.248-33.527,16.686
						c-2.314,1.118-3.011,2.402-2.994,4.9c0.115,16.8-0.01,33.603,0.107,50.405c0.027,3.888-1.217,6.719-4.322,9.143
						C120.149,121.814,100.924,127.889,79.734,128.203z M125.754,76.136c0-6.571-0.088-13.145,0.043-19.713
						c0.052-2.595-0.72-2.609-2.729-1.591c-10.366,5.259-20.78,10.427-31.183,15.618c-8.365,4.176-16.766,4.239-25.146,0.082
						C56.228,65.318,45.732,60.073,35.26,54.784c-1.762-0.889-2.628-1.112-2.612,1.424c0.081,13.034,0.051,26.069,0.017,39.104
						c-0.004,1.279,0.313,2.134,1.414,2.962c26.341,19.818,62.697,20.184,89.68,0.906c1.479-1.059,2.065-2.162,2.035-3.978
						C125.689,88.849,125.754,82.491,125.754,76.136z"/>
					<path fill="#094CDA" d="M-13.859,53.072c0-9.368-0.017-18.736,0.005-28.104c0.014-5.421,2.417-8.17,7.725-8.881
						C22.333,12.27,50.798,8.465,79.262,4.648c5.363-0.719,9.273,1.882,10.02,6.698c0.678,4.384-2.607,8.017-7.869,8.72
						C55.721,23.5,30.035,26.974,4.33,30.31c-2.324,0.302-2.712,1.248-2.705,3.29c0.063,16.259,0.033,32.519,0.034,48.777
						c0,3.3-1.307,5.859-4.309,7.363c-2.869,1.438-5.657,1.106-8.201-0.799c-2.245-1.68-3.032-4.045-3.023-6.795
						C-13.84,72.455-13.859,62.764-13.859,53.072z"/>
				</g>
			</g>
			<g id="Layer_4" display="inline">
				<g>
					<path fill="#094CDA" d="M90.219,157.742c-7.868-0.163-15.593-0.728-23.166-2.571c-4.57-1.113-7.066-4.905-6.135-9.091
						c0.99-4.456,4.753-6.888,9.504-5.962c23.508,4.588,46.016,1.825,66.822-10.238c27.138-15.734,42.211-39.688,45.391-70.793
						c2.966-29.018-5.119-54.744-25.744-75.671c-20.992-21.297-47.013-29.678-76.55-26.759C50.243-40.369,26.164-26.367,10.91-0.205
						c-19.645,33.692-18.948,67.813,2.114,101.08c0.345,0.546,0.728,1.067,1.08,1.609c2.649,4.066,1.97,8.605-1.658,11.137
						c-3.646,2.544-8.234,1.687-11.03-2.249c-8.989-12.653-14.897-26.666-17.794-41.883C-27.533,10.89,11.79-46.493,70.427-57.642
						c52.978-10.071,104.07,21.587,121.654,69.886c16.895,46.4,0.983,96.192-39.407,125.147
						C133.998,150.78,113.117,157.541,90.219,157.742z"/>
					<path fill="#094CDA" d="M89.721,64.607c8.83-0.001,17.66-0.008,26.488,0c11.393,0.01,20.969,7.641,23.763,18.615
						c1.909,7.502,4.167,14.916,6.266,22.369c1.404,4.981-0.471,9.235-4.637,10.535c-4.714,1.469-8.69-0.85-10.239-6.168
						c-2.375-8.157-4.624-16.353-6.943-24.525c-1.145-4.035-2.684-5.281-6.943-5.289c-18.521-0.033-37.043-0.032-55.564,0.01
						c-4,0.01-5.554,1.316-6.671,5.211c-4.718,16.439-9.378,32.896-14.171,49.313c-1.58,5.411-6.91,7.532-11.446,4.813
						c-3.284-1.969-4.487-5.288-3.283-9.536c3.723-13.144,7.5-26.271,11.255-39.405c0.71-2.481,1.448-4.956,2.121-7.448
						c3.083-11.412,12.303-18.483,24.162-18.49C72.492,64.603,81.105,64.608,89.721,64.607z"/>
					<path fill="#094CDA" d="M90.076,49.093c-16.102-0.058-30.941-15.061-30.893-31.236c0.049-15.904,15.061-30.828,30.998-30.813
						c16.287,0.015,31.168,15.063,31.051,31.399C121.119,34.343,106.069,49.148,90.076,49.093z M105.709,17.995
						c-0.01-9.591-5.902-15.429-15.574-15.428C80.563,2.568,74.668,8.52,74.709,18.145c0.041,9.615,5.936,15.451,15.578,15.422
						C99.91,33.539,105.719,27.673,105.709,17.995z"/>
				</g>
			</g>
			<g id="Layer_5" display="inline">
				<g>
					<path fill="#064ADA" d="M8.118,95.94c-0.001-17.99-0.047-35.98,0.056-53.97c0.014-2.326-0.748-3.67-2.616-4.988
						C-8.34,27.17-22.177,17.267-35.975,7.314c-1.703-1.229-2.869-1.5-4.742-0.142c-13.947,10.114-27.969,20.13-42.042,30.068
						c-1.729,1.221-2.248,2.492-2.243,4.517c0.059,32.75,0.082,65.498-0.025,98.246c-0.01,2.818,0.614,3.675,3.509,3.542
						c5.59-0.258,11.204-0.19,16.8-0.022c2.334,0.069,3.165-0.44,3.089-2.967c-0.198-6.458-0.075-12.926-0.064-19.389
						c0.024-12.704,11.201-24.297,23.352-24.234c12.181,0.063,23.177,11.63,23.189,24.399c0.007,6.355,0.15,12.717-0.067,19.064
						c-0.093,2.671,0.822,3.365,3.257,3.105c1.597-0.171,3.232-0.101,4.844-0.007c4.319,0.256,7.494,3.604,7.47,7.793
						c-0.023,4.161-3.265,7.562-7.589,7.663c-5.276,0.121-10.559,0.127-15.834-0.003c-4.564-0.114-7.56-3.453-7.581-8.31
						c-0.045-10.126,0.022-20.253-0.034-30.379c-0.031-5.424-2.408-7.767-7.661-7.804c-5.273-0.039-7.774,2.327-7.808,7.646
						c-0.063,9.91-0.013,19.821-0.025,29.732c-0.007,6.205-2.911,9.148-9.056,9.15c-27.577,0.008-55.154,0.008-82.73-0.004
						c-6.166-0.003-9.046-2.914-9.048-9.148c-0.011-24.992-0.017-49.984,0.001-74.977c0.008-9.616,7.096-16.681,16.721-16.705
						c9.049-0.021,18.099-0.065,27.146,0.042c2.082,0.024,2.763-0.515,2.716-2.669c-0.139-6.461,0.035-12.928-0.083-19.389
						c-0.064-3.551,1.227-6.156,4.131-8.219C-78.82,15.444-61.317,2.897-43.782-9.606c3.98-2.838,6.959-2.78,10.953,0.078
						c17.164,12.28,34.288,24.615,51.521,36.799c3.51,2.481,5.18,5.402,5.002,9.747c-0.241,5.914,0.075,11.852-0.121,17.77
						c-0.087,2.601,0.481,3.491,3.286,3.431c8.937-0.199,17.88-0.091,26.823-0.066c9.35,0.026,16.484,7.213,16.49,16.618
						c0.014,24.993,0.009,49.985,0.002,74.978c-0.001,6.375-2.883,9.236-9.293,9.239c-14.542,0.007-29.086,0.009-43.629-0.005
						c-6.208-0.006-9.123-2.896-9.127-9.068C8.109,131.922,8.118,113.932,8.118,95.94z M-131.499,108.399
						c0,10.765,0.072,21.53-0.056,32.294c-0.027,2.314,0.663,2.86,2.887,2.827c8.503-0.129,17.009-0.114,25.512-0.009
						c2.058,0.025,2.736-0.476,2.729-2.649c-0.081-21.53-0.081-43.061,0-64.59c0.007-2.16-0.65-2.683-2.72-2.656
						c-8.503,0.108-17.009,0.12-25.512-0.008c-2.214-0.034-2.925,0.496-2.897,2.817C-131.429,87.083-131.501,97.742-131.499,108.399
						z M23.635,108.578c0,10.655,0.052,21.314-0.043,31.971c-0.019,2.097,0.297,3.023,2.731,2.979
						c8.609-0.155,17.224-0.118,25.834-0.017c1.961,0.022,2.553-0.479,2.546-2.505c-0.072-21.637-0.075-43.273,0.003-64.912
						c0.007-2.067-0.66-2.492-2.575-2.473c-8.611,0.094-17.224,0.103-25.835-0.008c-2.085-0.027-2.733,0.523-2.71,2.669
						C23.691,87.047,23.633,97.813,23.635,108.578z"/>
					<path fill="#064ADA" d="M-46.177-46.61c0-6.135-0.029-12.271,0.008-18.406c0.035-5.599,3.023-8.673,8.541-8.688
						c14.962-0.037,29.922-0.036,44.884-0.001c5.565,0.013,8.585,3.063,8.613,8.617c0.035,6.995,0.022,13.992,0.002,20.988
						c-0.019,6.231-2.889,9.146-9.051,9.159C-4.59-34.919-16-34.84-27.407-34.999c-2.764-0.04-3.647,0.823-3.283,3.441
						c0.162,1.162,0.043,2.364,0.024,3.548c-0.078,5.023-3.229,8.53-7.693,8.577c-4.455,0.043-7.768-3.488-7.804-8.448
						C-46.212-34.125-46.177-40.367-46.177-46.61z M-15.18-50.449c4.307,0,8.617-0.114,12.917,0.048
						c2.193,0.083,2.901-0.721,2.64-2.771c-0.095-0.741-0.108-1.519,0.002-2.256c0.354-2.353-0.726-2.854-2.907-2.818
						c-7.642,0.12-15.287-0.026-22.93,0.064c-5.923,0.071-5.041-1.298-5.25,5.282c-0.066,2.083,0.71,2.537,2.61,2.484
						C-23.795-50.534-19.486-50.453-15.18-50.449z"/>
					<path fill="#064ADA" d="M-26.795,59.611c0.037,6.52-5.097,11.68-11.624,11.681c-6.514,0.001-11.656-5.163-11.632-11.682
						c0.023-6.258,5.211-11.509,11.471-11.609C-32.215,47.897-26.833,53.2-26.795,59.611z"/>
				</g>
			</g>
			<g id="Layer_6_1_" display="inline">
				<g>
					<path fill="#074BDA" d="M79.299-61.44c30.376,0.001,60.752,0,91.127,0.001c7.759,0,10.99,4.288,8.859,11.706
						c-4.006,13.961-7.947,27.942-12.041,41.878c-0.658,2.24-0.49,3.161,1.95,4.15c18.484,7.504,29.271,27.363,24.421,45.403
						c-3.684,13.702-12.852,22.65-26.166,27.183c-2.527,0.858-2.952,1.918-2.946,4.243c0.073,24.667,0.026,49.333,0.064,74
						c0.005,3.297-1.092,5.915-3.97,7.59c-2.656,1.545-5.395,1.426-7.963-0.206c-2.827-1.797-3.639-4.546-3.633-7.789
						c0.049-24.344-0.045-48.688,0.117-73.03c0.021-3.24-0.941-4.425-3.971-5.571c-14.698-5.561-23.921-15.998-26.77-31.68
						c-0.246-1.369-0.347-2.781-0.353-4.174c-0.021-4.795,3.138-8.262,7.546-8.371c4.418-0.11,7.779,3.214,7.931,7.986
						c0.1,3.151,0.548,6.229,1.657,9.171c3.738,9.896,12.014,14.713,23.662,13.841c10.198-0.763,17.967-7.625,19.996-17.669
						c3.227-15.973-6.486-27.935-22.984-28.051c-30.375-0.214-60.751-0.289-91.127-0.44C44.133,8.63,23.561,8.41,2.989,8.408
						C-13.556,8.406-24.259,21.66-20.977,37.81C-18.609,49.461-6.89,56.858,5.664,54.626c11.924-2.119,18.812-10.103,19.258-22.32
						c0.199-5.446,3.111-8.397,8.493-8.406c20.25-0.029,40.5-0.03,60.75,0.001c4.839,0.008,8.237,3.192,8.317,7.599
						c0.082,4.549-3.357,7.876-8.354,7.887c-17.127,0.039-34.254,0.056-51.381-0.026c-2.244-0.012-3.277,0.527-4.059,2.849
						c-4.446,13.208-13.421,22.087-26.613,26.543c-2.153,0.725-2.717,1.646-2.709,3.823c0.081,24.881,0.057,49.763,0.041,74.645
						c-0.002,4.159-1.76,6.809-5.203,8.067c-3.012,1.1-6.372,0.175-8.474-2.313c-1.643-1.946-1.855-4.242-1.853-6.673
						c0.031-24.343-0.015-48.687,0.077-73.029c0.012-2.596-0.569-3.843-3.268-4.756c-18.205-6.16-29.688-24.134-27.092-42.768
						C-34.6,12.783-26.533,4.12-15.535-2.159c1.026-0.586,2.1-1.095,3.178-1.582c4.214-1.899,4.196-1.886,2.895-6.427
						c-3.854-13.446-7.707-26.892-11.526-40.347c-1.829-6.441,1.511-10.909,8.194-10.914C17.901-61.452,48.6-61.44,79.299-61.44z
						 M79.402-45.92c-26.606,0-53.214,0.026-79.822-0.046c-2.388-0.006-3.213,0.273-2.414,2.947
						C0.493-31.886,3.655-20.703,6.762-9.506c0.537,1.94,1.475,2.412,3.377,2.421c45.89,0.187,91.779,0.41,137.667,0.744
						c2.545,0.018,3.268-1.026,3.854-3.127c3.092-11.088,6.203-22.176,9.517-33.199c0.858-2.854,0.203-3.323-2.596-3.313
						C132.188-45.881,105.795-45.922,79.402-45.92z"/>
					<path fill="#074BDA" d="M24.926,124.181c0-7.325-0.024-14.649,0.006-21.975c0.051-12.492,11.207-24.002,23.245-24.014
						s23.25,11.5,23.278,23.979c0.035,15.079,0.031,30.16-0.004,45.24c-0.01,4.074-1.924,6.757-5.409,7.919
						c-3.173,1.058-6.55-0.04-8.594-2.813c-1.278-1.735-1.515-3.723-1.51-5.819c0.026-14.973,0.031-29.945-0.001-44.917
						c-0.013-5.667-2.375-8.076-7.722-8.074c-5.369,0.003-7.747,2.391-7.76,8.04c-0.04,15.188,0.002,30.376-0.024,45.563
						c-0.008,4.102-1.857,6.782-5.32,7.985c-3.097,1.076-6.259,0.159-8.417-2.449c-1.375-1.662-1.792-3.603-1.781-5.722
						C24.946,139.477,24.926,131.828,24.926,124.181z"/>
					<path fill="#074BDA" d="M86.979,123.94c-0.003-7.217-0.02-14.435,0-21.651c0.035-12.521,11.125-24.047,23.168-24.103
						c12.035-0.056,23.327,11.449,23.365,23.902c0.041,14.865,0.017,29.73,0.002,44.596c-0.007,5.506-3.178,9.124-7.861,9.053
						c-4.563-0.069-7.638-3.645-7.643-8.955c-0.014-15.08,0.027-30.161-0.025-45.242c-0.018-5.56-2.505-7.909-7.956-7.833
						c-5.173,0.073-7.505,2.465-7.52,7.949c-0.04,15.188,0.015,30.376-0.035,45.565c-0.019,6.361-5.487,10.271-10.866,7.807
						c-3.146-1.441-4.631-4.038-4.629-7.497C86.984,139.668,86.98,131.804,86.979,123.94z"/>
					<path fill="#074BDA" d="M9.401,31.59c0.038,4.272-3.497,7.822-7.771,7.8c-4.295-0.021-7.768-3.554-7.723-7.853
						c0.043-4.137,3.474-7.582,7.609-7.64C5.816,23.837,9.362,27.295,9.401,31.59z"/>
					<path fill="#074BDA" d="M157.049,23.898c4.271,0.144,7.65,3.795,7.483,8.09c-0.167,4.247-3.892,7.622-8.167,7.394
						c-4.141-0.221-7.406-3.75-7.325-7.921C149.125,27.202,152.773,23.756,157.049,23.898z"/>
				</g>
			</g>
		</g>
		<g id="Layer_2_1_" display="none">
			<g display="inline">
				<path fill="#0E4BD9" d="M-20.189,87.236c-33.069,0.002-66.137,0.005-99.206,0.001c-6.683-0.001-9.523-2.779-9.524-9.341
					c-0.004-42.763-0.002-85.526,0.004-128.288c0.001-7.076,2.675-9.742,9.753-9.751c9.048-0.01,18.096-0.016,27.144,0.006
					c5.333,0.013,8.832,3.091,8.848,7.714c0.017,4.629-3.48,7.76-8.78,7.785c-5.924,0.029-11.854,0.151-17.77-0.055
					c-2.833-0.099-3.775,0.543-3.762,3.621c0.131,30.482,0.081,60.967,0.082,91.45c0,6.139,0.078,12.28-0.046,18.418
					c-0.042,2.107,0.33,2.979,2.748,2.977c60.212-0.07,120.425-0.068,180.636-0.007c2.257,0.002,2.871-0.582,2.867-2.854
					c-0.07-36.945-0.063-73.892-0.008-110.838c0.004-2.024-0.421-2.774-2.629-2.751c-11.201,0.112-22.404,0.109-33.605-0.006
					c-2.21-0.022-2.772,0.723-2.609,2.757c0.842,10.479-2.432,13.023-13.139,12.911c-28.648-0.3-57.303-0.099-85.955-0.105
					c-6.686-0.002-9.47-2.763-9.476-9.375c-0.01-9.371-0.019-18.742,0.003-28.113c0.015-6.166,2.921-9.041,9.161-9.043
					c30.16-0.013,60.32-0.016,90.48-0.004c5.977,0.002,8.904,2.969,8.952,8.941c0.052,6.559,0.052,6.564,6.47,6.567
					c12.927,0.005,25.853-0.013,38.777,0.009c6.163,0.011,9.043,2.944,9.043,9.163c0.004,42.978,0.005,85.956-0.003,128.934
					c-0.001,6.442-2.822,9.271-9.251,9.271C45.947,87.237,12.879,87.232-20.189,87.236z M-20.473-44.632
					c12.054,0,24.109-0.064,36.161,0.056c2.317,0.023,2.943-0.668,2.819-2.896c-0.184-3.326-0.167-6.675-0.005-10.004
					c0.101-2.097-0.538-2.734-2.676-2.714c-10.869,0.103-21.74,0.046-32.61,0.045c-13.13,0-26.261,0.071-39.39-0.063
					c-2.488-0.024-3.13,0.713-2.982,3.077c0.203,3.217,0.193,6.463,0.002,9.681c-0.134,2.262,0.556,2.894,2.843,2.87
					C-44.367-44.696-32.419-44.634-20.473-44.632z"/>
				<path fill="#25BFFA" d="M16.805,94.998c3.357-0.047,6.229,1.73,7.396,5.194c3.737,11.097,7.42,22.217,10.873,33.405
					c1.47,4.76-0.783,8.611-5.16,9.944c-4.122,1.255-8.068-0.813-9.579-5.319c-3.614-10.798-7.176-21.614-10.597-32.474
					C7.93,100.006,11.305,95.074,16.805,94.998z"/>
				<path fill="#25BFFA" d="M-49.804,102.744c-0.174,2.84-1.369,5.401-2.223,8.053c-2.967,9.2-5.978,18.389-8.971,27.582
					c-1.135,3.484-3.689,5.324-7.192,5.502c-3.117,0.156-5.616-1.354-7.112-4.174c-1.37-2.58-0.833-5.218,0.025-7.826
					c2.248-6.837,4.493-13.676,6.74-20.515c1.274-3.877,2.382-7.82,3.881-11.608c1.422-3.594,5.103-5.379,8.644-4.639
					C-52.357,95.885-49.819,99.003-49.804,102.744z"/>
				<path fill="#F6F7F8" d="M15.826-60.19c2.137-0.021,2.777,0.617,2.676,2.714c-0.162,3.328-0.179,6.678,0.005,10.004
					c0.124,2.228-0.502,2.919-2.819,2.896c-12.052-0.12-24.107-0.056-36.161-0.057c-11.945-0.001-23.893-0.063-35.838,0.054
					c-2.287,0.022-2.978-0.608-2.843-2.87c0.191-3.218,0.201-6.464-0.002-9.681c-0.147-2.364,0.494-3.103,2.982-3.077
					c13.129,0.134,26.26,0.063,39.39,0.063"/>
			</g>
		</g>
		<g id="Layer_3_1_" display="none">
			<g display="inline">
				<path fill="#064ADA" d="M2.947,58.723c0-22.838-0.006-45.675,0.003-68.513c0.003-13.473,10.966-24.478,24.381-24.498
					c4.525-0.006,9.049-0.025,13.574,0.008c5.077,0.036,8.529,3.152,8.572,7.674c0.042,4.543-3.398,7.775-8.426,7.822
					c-4.955,0.046-9.912-0.031-14.866,0.031c-5.358,0.065-7.699,2.365-7.703,7.744c-0.026,46.536-0.028,93.072-0.001,139.608
					c0.002,5.37,2.356,7.735,7.714,7.739c41.365,0.03,82.732,0.03,124.097,0.001c5.379-0.003,7.764-2.353,7.768-7.688
					c0.03-46.537,0.03-93.073,0-139.61c-0.004-5.529-2.355-7.781-7.98-7.8c-12.604-0.04-25.206,0.027-37.81-0.059
					c-1.79-0.013-2.69,0.584-3.436,2.151c-0.729,1.536-1.745,2.977-2.834,4.296C99.48-4.461,90.07-1.448,81.529-4.458
					c-9.596-3.381-16.51-12.941-16.527-22.896c-0.016-9.588-0.016-19.175,0-28.763c0.012-6.255,2.872-9.182,9.009-9.196
					c9.587-0.022,19.175-0.022,28.763,0.001c5.748,0.014,8.734,3.008,8.762,8.785c0.032,6.355,0.119,12.714-0.047,19.065
					c-0.066,2.472,0.536,3.272,3.153,3.238c11.524-0.154,23.052-0.075,34.578-0.066c13.265,0.011,24.364,10.98,24.37,24.183
					c0.023,45.89,0.023,91.78,0,137.67c-0.006,13.298-10.973,24.294-24.242,24.302c-40.826,0.024-81.652,0.025-122.48-0.004
					c-12.794-0.01-23.891-11.154-23.909-23.981C2.924,104.827,2.947,81.775,2.947,58.723z M96.008-36.723c0.006,0,0.011,0,0.015,0
					c0-3.548-0.069-7.097,0.03-10.643c0.047-1.675-0.227-2.558-2.227-2.478c-3.756,0.148-7.523,0.098-11.285,0.016
					c-1.5-0.033-2.07,0.406-2.055,1.986c0.076,7.417-0.07,14.837,0.096,22.251c0.107,4.708,2.833,6.872,7.936,6.804
					c4.813-0.063,7.304-2.307,7.465-6.974C96.108-29.409,96.008-33.067,96.008-36.723z"/>
				<path fill="#1EC0FA" d="M115.416,43.116c0.051,14.012-13.021,27.24-26.984,27.308c-14.003,0.067-27.27-13.04-27.309-26.982
					c-0.039-14.024,13.008-27.228,26.987-27.31C102.094,16.05,115.366,29.165,115.416,43.116z M88.18,54.902
					c7.492,0.016,11.647-4.047,11.715-11.451c0.069-7.601-4.109-11.816-11.691-11.797c-7.415,0.021-11.553,4.179-11.555,11.614
					C76.645,50.72,80.776,54.888,88.18,54.902z"/>
				<path fill="#1EC0FA" d="M44.192,104.836c0.072-1.634,0.529-3.17,1.151-4.673c4.549-10.996,15.092-18.084,26.998-18.104
					c10.543-0.018,21.088-0.03,31.631,0.006c12.304,0.042,23.816,8.693,27.277,20.433c1.389,4.71-0.74,8.952-5.17,10.291
					c-4.16,1.257-8.255-1.149-9.715-5.711c-2.365-7.377-5.199-9.479-12.91-9.493c-10.222-0.018-20.441-0.008-30.662-0.005
					c-8.197,0.003-10.783,1.855-13.484,9.649c-2.141,6.175-9.063,7.869-13.284,3.272C44.531,108.876,44.102,106.951,44.192,104.836z
					"/>
			</g>
		</g>
	</g>
</g>
<g id="Layer_3_2_">
	<g id="Component_54_1_1_" transform="translate(51.063 417.239)">
		<text transform="matrix(1 0 0 1 -30.063 -358.1902)" fill="#FFFFFF" font-family="'ArialMT'" font-size="18.5">Profile</text>
	</g>
</g>
<g id="Layer_2_2_">
	<g id="Layer_4_1_">
		<g>
			<path fill="#FFFFFF" d="M31.958,38.983c0.356,0,0.64,0,0.924,0c8.248,0,16.496,0,24.744,0c0.288,0,0.576-0.011,0.862,0.005
				c0.965,0.052,1.682,0.786,1.686,1.714c0.003,0.929-0.709,1.688-1.67,1.729c-0.717,0.029-1.438,0.008-2.158,0.008
				c-8.679,0-17.359,0-26.039,0c-1.851,0-2.499-0.83-2.078-2.65c0.657-2.848,1.316-5.693,1.963-8.543
				c0.735-3.241,4.096-6.04,7.459-6.059c7.025-0.04,14.05-0.044,21.075,0.001c3.479,0.022,6.705,2.793,7.477,6.293
				c0.639,2.9,1.242,5.809,1.853,8.715c0.226,1.076-0.329,1.994-1.313,2.209c-0.971,0.211-1.845-0.418-2.077-1.506
				c-0.632-2.95-1.231-5.908-1.897-8.851c-0.52-2.292-1.968-3.417-4.318-3.419c-6.809-0.009-13.619-0.008-20.428-0.001
				c-2.513,0.003-3.917,1.132-4.487,3.572C33.014,34.436,32.495,36.673,31.958,38.983z"/>
			<path fill="#FFFFFF" d="M58.448,11.346c0.008,5.479-4.858,10.367-10.327,10.373c-5.493,0.006-10.378-4.841-10.392-10.309
				C37.716,5.886,42.578,1.001,48.094,1C53.57,0.998,58.439,5.865,58.448,11.346z M54.992,11.391
				c0.01-4.037-2.826-6.914-6.837-6.935c-4.075-0.021-6.963,2.826-6.97,6.873c-0.007,4.041,2.833,6.921,6.838,6.934
				C52.107,18.276,54.98,15.442,54.992,11.391z"/>
		</g>
	</g>
</g>
</svg>
