<svg xmlns="http://www.w3.org/2000/svg" width="61" height="68.065" viewBox="0 0 61 68.065">
  <g id="others" transform="translate(-65.945 -753)">
    <g id="Component_58_1" data-name="Component 58 – 1" transform="translate(65.945 753)">
      <g id="others-2" data-name="others" transform="translate(15.428)">
        <g id="Group_4" data-name="Group 4">
          <path id="Path_17" data-name="Path 17" d="M430.99,245.819q0-5.995,0-11.989a3.863,3.863,0,0,1,3.917-3.9c3.418,0,6.837.008,10.255-.009a1.768,1.768,0,0,1,1.421.644c1.195,1.326,2.421,2.624,3.622,3.945a.91.91,0,0,0,.748.325c3.452-.011,6.9-.008,10.357-.007a3.866,3.866,0,0,1,3.975,4q0,5.28,0,10.561a1.226,1.226,0,0,1-1.835,1.194,1.308,1.308,0,0,1-.617-1.256q.013-5.2,0-10.408c0-.187.007-.375-.006-.561a1.012,1.012,0,0,0-1.056-1.071c-.169-.013-.34-.007-.51-.007-3.656,0-7.313-.009-10.969.008a1.769,1.769,0,0,1-1.431-.62c-1.208-1.337-2.447-2.646-3.662-3.977a.857.857,0,0,0-.7-.317c-3.248.01-6.5,0-9.745.008-.972,0-1.314.348-1.314,1.331q0,12.142,0,24.285c0,.977.348,1.325,1.321,1.325q6.581,0,13.163,0a1.327,1.327,0,0,1,1.234.565,1.142,1.142,0,0,1,.066,1.211,1.187,1.187,0,0,1-1.115.676c-.952,0-1.9,0-2.857,0q-5.2,0-10.408,0a3.864,3.864,0,0,1-3.855-3.861Q430.986,251.865,430.99,245.819Z" transform="translate(-430.989 -229.919)" fill="#fbfbfb" fill-rule="evenodd"/>
          <path id="Path_18" data-name="Path 18" d="M613.738,430.773c-.4.205-.727.377-1.057.539-.2.1-.165.276-.166.442,0,.952-.023,1.9.006,2.856a1.516,1.516,0,0,1-.854,1.484,7.9,7.9,0,0,1-4.191,1.244,8.692,8.692,0,0,1-4.277-1.491,1.124,1.124,0,0,1-.486-1.063c.006-.986-.01-1.972.009-2.958a.591.591,0,0,0-.378-.629c-.855-.416-1.692-.871-2.544-1.294a1.239,1.239,0,0,1,0-2.281c2.078-1.051,4.141-2.128,6.228-3.16a3.446,3.446,0,0,1,3.152-.006c2.119,1.043,4.216,2.13,6.322,3.2a1.161,1.161,0,0,1,.683,1.1c0,1.207.007,2.414,0,3.621a1.224,1.224,0,1,1-2.446-.013C613.731,431.864,613.738,431.36,613.738,430.773Zm-1.464-2.013-4.294-2.169a.909.909,0,0,0-.875.066c-1.24.635-2.484,1.262-3.724,1.9-.111.057-.274.062-.3.268l4.17,2.109a.737.737,0,0,0,.688.018C609.347,430.242,610.752,429.529,612.274,428.76Zm-7.107,3.9c0,.459,0,.848,0,1.237a.34.34,0,0,0,.193.325,3.954,3.954,0,0,0,3.6.494c1.074-.4,1.138-.5,1.116-1.642-.008-.388-.135-.393-.414-.231a4.084,4.084,0,0,1-2.7.514A7.141,7.141,0,0,1,605.167,432.662Z" transform="translate(-581.893 -404.258)" fill="#fbfbfb" fill-rule="evenodd"/>
        </g>
      </g>
      <text id="Others-3" data-name="Others" transform="translate(0 61.065)" fill="#fbfbfb" font-size="20" font-family="Nunito-Regular, Nunito"><tspan x="0" y="0">Others</tspan></text>
    </g>
  </g>
</svg>
