<svg xmlns="http://www.w3.org/2000/svg" width="54" height="68.715" viewBox="0 0 54 68.715">
  <g id="home" transform="translate(-73.5 -301.803)">
    <text id="Home-2" data-name="Home" transform="translate(73.5 363.518)" fill="#fff" font-size="20" font-family="Nunito-Regular, Nunito"><tspan x="0" y="0">Home</tspan></text>
    <g id="home-3" data-name="home" transform="translate(83.372 301.803)">
      <g id="Group_2" data-name="Group 2">
        <path id="Path_9" data-name="Path 9" d="M515.948,352.257c0-2.894-.007-5.788.009-8.682a.861.861,0,0,0-.421-.8q-3.354-2.368-6.681-4.773a.544.544,0,0,0-.763-.023q-3.365,2.441-6.763,4.837a.772.772,0,0,0-.361.727q.014,7.9,0,15.805c0,.453.1.591.565.57.9-.042,1.8-.031,2.7,0,.375.011.509-.071.5-.477-.032-1.039-.012-2.079-.01-3.119a3.747,3.747,0,1,1,7.487.027c0,1.022.024,2.046-.011,3.067-.015.43.132.541.524.5a4.741,4.741,0,0,1,.779,0,1.244,1.244,0,0,1-.019,2.486q-1.273.029-2.547,0a1.232,1.232,0,0,1-1.22-1.337c-.007-1.629,0-3.258-.005-4.887,0-.873-.387-1.249-1.232-1.255s-1.251.374-1.256,1.23c-.01,1.594,0,3.189,0,4.783a1.282,1.282,0,0,1-1.457,1.472q-6.655,0-13.309,0c-.992,0-1.455-.469-1.456-1.472q0-6.031,0-12.062a2.615,2.615,0,0,1,2.69-2.687c1.456,0,2.912-.011,4.367.007.335,0,.444-.083.437-.429-.022-1.039.006-2.08-.013-3.119a1.467,1.467,0,0,1,.665-1.322q4.237-3.01,8.461-6.036a1.3,1.3,0,0,1,1.762.013c2.761,1.976,5.516,3.96,8.288,5.92a1.683,1.683,0,0,1,.8,1.568c-.039.952.012,1.907-.02,2.859-.014.418.077.562.529.552,1.438-.032,2.877-.014,4.315-.01a2.619,2.619,0,0,1,2.653,2.673q0,6.031,0,12.062c0,1.026-.464,1.486-1.495,1.486q-3.509,0-7.019,0a1.279,1.279,0,0,1-1.469-1.459Q515.945,356.6,515.948,352.257Zm-22.46,2c0,1.732.011,3.464-.009,5.2,0,.372.107.46.464.455,1.368-.021,2.736-.018,4.1,0,.331,0,.44-.077.439-.426q-.02-5.2,0-10.391c0-.348-.1-.432-.438-.427q-2.052.026-4.1,0c-.356-.005-.471.08-.466.453C493.5,350.832,493.488,352.547,493.488,354.261Zm24.957.029c0,1.714.008,3.429-.007,5.143,0,.337.048.486.439.479,1.385-.025,2.771-.019,4.156,0,.315,0,.411-.077.409-.4q-.018-5.221,0-10.443c0-.333-.106-.4-.414-.4q-2.078.023-4.156,0c-.335,0-.44.084-.436.429C518.454,350.826,518.444,352.558,518.445,354.29Z" transform="translate(-490.991 -324.961)" fill="#fff" fill-rule="evenodd"/>
        <path id="Path_10" data-name="Path 10" d="M646.985,243.342c0-.987,0-1.974,0-2.961a1.253,1.253,0,0,1,1.374-1.4q3.61-.009,7.221,0a1.252,1.252,0,0,1,1.385,1.386c.006,1.125,0,2.251,0,3.377,0,1-.465,1.471-1.456,1.473-1.836,0-3.671.016-5.506-.009-.445-.006-.587.133-.528.554a3.74,3.74,0,0,1,0,.571,1.252,1.252,0,1,1-2.493.02C646.979,245.351,646.985,244.346,646.985,243.342Zm4.987-.617c.693,0,1.386-.018,2.078.008.353.013.467-.116.425-.446a1.338,1.338,0,0,1,0-.363c.057-.379-.117-.459-.468-.453-1.229.019-2.459,0-3.689.01-.953.011-.811-.209-.845.85-.011.335.114.408.42.4C650.585,242.711,651.279,242.724,651.971,242.725Z" transform="translate(-630.762 -238.979)" fill="#fff" fill-rule="evenodd"/>
        <path id="Path_11" data-name="Path 11" d="M644.749,429.171a1.871,1.871,0,1,1-3.741,0,1.871,1.871,0,0,1,3.741,0Z" transform="translate(-625.408 -407.72)" fill="#fff" fill-rule="evenodd"/>
      </g>
    </g>
  </g>
</svg>
