<?xml version="1.0" encoding="utf-8"?>
<!-- Generator: Adobe Illustrator 16.0.0, SVG Export Plug-In . SVG Version: 6.00 Build 0)  -->
<!DOCTYPE svg PUBLIC "-//W3C//DTD SVG 1.1//EN" "http://www.w3.org/Graphics/SVG/1.1/DTD/svg11.dtd">
<svg version="1.1" xmlns="http://www.w3.org/2000/svg" xmlns:xlink="http://www.w3.org/1999/xlink" x="0px" y="0px" width="1682px"
	 height="841px" viewBox="0 0 1682 841" enable-background="new 0 0 1682 841" xml:space="preserve">
<g id="Layer_1">
	<g>
		<path fill-rule="evenodd" clip-rule="evenodd" fill="#F5F7F8" d="M598.268,247.775c-11.473,0.169-22.785,1.006-33.896,3.323
			c-65.755,13.71-113.329,51.349-144.498,110.353c-3.691,6.986-1.56,14.01,4.607,17.171c6.46,3.312,13.11,0.781,16.881-6.57
			c5.026-9.8,10.692-19.198,17.152-28.122c41.83-57.789,112.775-84.251,181.42-66.717c49.9,12.747,86.062,43.532,111.152,88.007
			c1.435,2.545,0.671,4.291-0.533,6.395c-26.588,46.499-64.907,77.703-117.939,88.713c-41.494,8.616-81.16,2.784-118.29-18.243
			c-18.187-10.3-33.58-23.905-47.329-39.535c-4.948-5.625-12.241-6.081-17.332-1.532c-5.088,4.546-5.502,11.959-0.578,17.428
			c45.963,51.047,102.927,76.478,171.628,67.774c71.119-9.008,121.911-48.961,155.478-111.622c2.521-4.706,2.151-9.205-0.279-13.811
			c-4.355-8.258-8.877-16.421-14.331-24.006C721.401,280.896,667.457,250.302,598.268,247.775z"/>
		<path fill-rule="evenodd" clip-rule="evenodd" fill="#0C66CC" d="M598.268,247.775c69.189,2.527,123.133,33.121,163.313,89.007
			c5.453,7.585,9.975,15.748,14.331,24.006c2.43,4.606,2.8,9.104,0.279,13.811c-33.566,62.661-84.358,102.614-155.478,111.622
			c-68.701,8.703-125.665-16.728-171.628-67.774c-4.924-5.469-4.51-12.882,0.578-17.428c5.091-4.549,12.384-4.094,17.332,1.532
			c13.749,15.63,29.142,29.235,47.329,39.535c37.129,21.027,76.795,26.859,118.29,18.243c53.032-11.01,91.351-42.214,117.939-88.713
			c1.204-2.104,1.968-3.85,0.533-6.395c-25.09-44.475-61.251-75.26-111.152-88.007c-68.645-17.534-139.591,8.929-181.42,66.717
			c-6.46,8.924-12.126,18.322-17.152,28.122c-3.771,7.352-10.42,9.882-16.881,6.57c-6.167-3.161-8.298-10.185-4.607-17.171
			c31.169-59.004,78.743-96.643,144.498-110.353C575.482,248.782,586.794,247.945,598.268,247.775z"/>
		<path fill-rule="evenodd" clip-rule="evenodd" fill="#ECC429" d="M672.998,367.503c-0.091,33.157-24.435,63.118-56.792,70.636
			c-31.143,7.234-64.717-9.209-79.573-38.956c-11.519-23.065-9.551-45.725,2.19-67.996c3.43-6.505,10.219-8.316,16.64-4.918
			c15.591,8.25,31.144,0.126,33.438-17.464c1.274-9.772,5.347-13.224,15.275-12.945c31.649,0.89,62.655,28.141,67.67,59.475
			C672.53,359.61,673.3,363.879,672.998,367.503z M600.964,415.821c26.508-0.025,44.447-15.81,47.8-42.058
			c3.104-24.302-10.963-46.337-33.077-52.113c-3.593-0.938-5.483-0.634-7.278,3.185c-9.289,19.768-27.251,29.989-48.839,27.97
			c-3.522-0.33-4.661,0.889-5.324,4.011C548.296,384.804,563.704,415.617,600.964,415.821z"/>
	</g>
</g>
<g id="Layer_2" display="none">
	<g display="inline">
		<path fill-rule="evenodd" clip-rule="evenodd" fill="#0C66CC" d="M587.821,597.216c-4.47,0.151-7.52-1.956-10.325-4.78
			c-11.389-11.465-22.856-22.852-34.256-34.305c-6.969-7.002-6.968-13.27,0.032-20.279c29.314-29.352,58.654-58.68,87.986-88.014
			c33.687-33.69,67.375-67.377,101.063-101.065c8.486-8.486,14.413-8.326,22.817,0.231c10.74,10.935,21.657,21.697,32.486,32.543
			c7.2,7.211,7.226,13.409-0.009,20.646c-63.245,63.271-126.507,126.525-189.75,189.798
			C594.968,594.891,591.953,597.426,587.821,597.216z M704.724,431.848c-0.218,3.594-2.54,7.385-7.329,9.376
			c-5,2.079-9.805,1.228-13.19-2.844c-3.052-3.671-4.751-2.87-7.667,0.091c-16.473,16.732-33.146,33.27-49.749,49.873
			c-18.841,18.84-37.641,37.723-56.572,56.473c-2.44,2.417-2.686,3.899-0.048,6.313c4.665,4.268,9.232,8.689,13.394,13.438
			c2.956,3.374,4.684,3.108,7.779-0.01c32.257-32.501,64.683-64.836,97.062-97.216c23.901-23.902,47.761-47.846,71.76-71.649
			c2.753-2.73,3.662-4.438,0.287-7.414c-4.862-4.287-9.345-9.02-13.805-13.738c-2.111-2.233-3.527-2.674-5.956-0.204
			c-13.309,13.538-26.742,26.955-40.262,40.281c-2.302,2.269-2.512,3.893-0.138,6.06
			C703.096,423.24,704.885,426.365,704.724,431.848z"/>
		<path fill-rule="evenodd" clip-rule="evenodd" fill="#ECC429" d="M774.457,290.493c0,4.49,0.226,8.994-0.05,13.467
			c-0.469,7.593-5.494,12.382-12.375,12.189c-6.76-0.19-11.651-5.389-11.775-12.9c-0.143-8.646-0.164-17.3,0.018-25.945
			c0.158-7.517,5.115-12.6,11.965-12.722c6.737-0.12,11.879,4.979,12.236,12.44c0.214,4.48,0.04,8.979,0.04,13.47
			C774.495,290.493,774.476,290.493,774.457,290.493z"/>
		<path fill-rule="evenodd" clip-rule="evenodd" fill="#ECC429" d="M844.992,384.776c-4.491,0.002-8.985,0.116-13.472-0.023
			c-7.425-0.229-12.59-5.209-12.666-12.014c-0.075-6.735,4.508-11.768,11.915-12.069c9.131-0.372,18.299-0.388,27.43-0.023
			c7.752,0.309,12.314,5.316,12.174,12.339c-0.135,6.749-5.352,11.565-12.906,11.768
			C853.311,384.865,849.15,384.773,844.992,384.776z"/>
		<path fill-rule="evenodd" clip-rule="evenodd" fill="#ECC429" d="M831.916,453c-4.673,0.024-7.706-1.509-10.285-4.096
			c-5.53-5.543-11.132-11.016-16.582-16.638c-5.403-5.575-5.622-12.924-0.716-17.824c4.756-4.751,12.032-4.684,17.462,0.521
			c6.131,5.876,12.111,11.921,17.951,18.087c3.552,3.75,4.118,8.363,1.952,13.006C839.63,450.49,835.885,452.752,831.916,453z"/>
		<path fill-rule="evenodd" clip-rule="evenodd" fill="#ECC429" d="M831.412,292.17c4.216,0.229,7.783,2.375,9.997,6.526
			c2.238,4.199,2.195,8.632-0.814,12.229c-6.302,7.536-13.317,14.464-20.757,20.858c-4.62,3.971-11.281,3.118-15.479-1.042
			c-4.328-4.29-5.155-11.215-0.937-15.866c6.363-7.018,13.307-13.516,20.107-20.128C825.508,292.824,828.163,292.21,831.412,292.17z
			"/>
		<path fill-rule="evenodd" clip-rule="evenodd" fill="#ECC429" d="M681.99,303.977c0.213-4.7,2.393-8.255,6.52-10.441
			c3.964-2.1,8.191-2.194,11.789,0.527c6.352,4.805,12.25,10.218,17.568,16.129c3.951,4.391,3.242,11.207-0.818,15.448
			c-4.077,4.259-10.802,5.265-15.388,1.556c-5.794-4.687-11.202-9.867-16.589-15.03C682.859,310.047,681.899,307.139,681.99,303.977
			z"/>
	</g>
</g>
</svg>
