<svg width="73" height="54" xmlns="http://www.w3.org/2000/svg" xmlns:xlink="http://www.w3.org/1999/xlink" overflow="hidden">
    <g clip-path="url(#clip0)">
        <text fill="#FBFBFB" font-family="Nunito,Nunito_MSFontService,sans-serif" font-weight="400" font-size="18" transform="matrix(0.992045 0 0 0.992045 0.290348 48)">Students</text>
        <path d="M36.8046 28.307C33.3709 28.3307 30.0321 27.1805 27.3415 25.0471 27.012 24.8143 26.8189 24.4337 26.8256 24.0303 26.8256 20.8181 26.8137 17.6049 26.8326 14.3926 26.8385 13.3599 27.8117 12.8698 28.8097 13.3668 30.131 14.0245 31.4456 14.6952 32.765 15.3579 33.8235 15.8886 34.8879 16.4074 35.9395 16.9451 36.4303 17.2142 37.0249 17.2123 37.5139 16.9402 42.0244 14.679 46.5372 12.4224 51.0524 10.1705 51.1306 10.1354 51.2065 10.0953 51.2795 10.0504 51.3846 9.979 51.5712 9.97501 51.5484 9.78754 51.5315 9.64368 51.3817 9.62683 51.2805 9.57523 49.932 8.89468 48.5825 8.2168 47.232 7.54156 44.0237 5.93741 40.8115 4.34021 37.6091 2.72415 37.0621 2.4166 36.3948 2.414 35.8453 2.71722 31.2766 5.01544 26.7036 7.30612 22.1263 9.58914 21.5351 9.98636 20.7338 9.82913 20.3365 9.23792 20.3118 9.20111 20.2889 9.16302 20.2682 9.12384 19.9625 8.49573 20.2239 7.73871 20.8519 7.43298 20.9069 7.40622 20.9639 7.38345 21.0222 7.36493 25.6265 5.05811 30.2333 2.75626 34.8423 0.459351 36.0112-0.150177 37.4033-0.1539 38.5754 0.449402 43.2053 2.74203 47.8203 5.06738 52.4422 7.37787 53.7862 7.97745 54.3895 9.55301 53.79 10.897 53.5212 11.4994 53.0385 11.9807 52.4353 12.2478 50.6496 13.1406 48.8798 14.0414 47.0872 14.9095 46.7639 15.0251 46.5651 15.3508 46.6099 15.6912 46.6288 18.3697 46.6099 21.0482 46.6268 23.7267 46.6614 24.2987 46.4013 24.8487 45.9374 25.1851 43.3285 27.2188 40.1125 28.3182 36.8046 28.307ZM44.1457 20.0016C44.1457 18.953 44.1318 17.9055 44.1526 16.8578 44.1606 16.4442 44.0375 16.4412 43.7172 16.6039 42.0634 17.4431 40.4027 18.2675 38.743 19.0949 37.4908 19.7633 35.9888 19.7682 34.7322 19.1078 33.0556 18.2765 31.3821 17.4392 29.7115 16.5959 29.4307 16.4541 29.2928 16.4184 29.2948 16.8231 29.3077 18.9064 29.3027 20.9818 29.2948 23.0601 29.2787 23.2467 29.3649 23.4273 29.52 23.5323 33.7463 26.6947 39.5348 26.7534 43.8243 23.6772 44.0437 23.5438 44.1692 23.2982 44.1487 23.0422 44.1358 22.0294 44.1457 21.0155 44.1457 20.0016Z" fill="#FBFBFB" fill-rule="evenodd"/><path d="M21.8763 16.3241C21.8763 14.8301 21.8763 13.3351 21.8763 11.8411 21.7853 11.1556 22.2672 10.5262 22.9526 10.4353 23.0043 10.4284 23.0563 10.4248 23.1084 10.4244L36.7281 8.60004C37.418 8.42264 38.121 8.83801 38.2984 9.52783 38.3104 9.57413 38.3196 9.62109 38.3263 9.66849 38.4345 10.3629 37.9107 10.9472 37.0714 11.0573 32.9733 11.6049 28.8762 12.1585 24.7761 12.6912 24.405 12.7399 24.3434 12.8896 24.3445 13.216 24.3544 15.8092 24.3495 18.4034 24.3504 20.9966 24.3837 21.4921 24.1112 21.9576 23.663 22.1712 23.2416 22.3995 22.7239 22.3493 22.3545 22.0443 22.0221 21.7866 21.841 21.3794 21.8723 20.96 21.8792 19.4153 21.8763 17.8697 21.8763 16.3241Z" fill="#FBFBFB" fill-rule="evenodd"/>
    </g>
</svg>