<svg xmlns="http://www.w3.org/2000/svg" width="98" height="65.549" viewBox="0 0 98 65.549">
  <g id="department" transform="translate(-51.063 -375.69)">
    <g id="Component_54_1" data-name="Component 54 – 1" transform="translate(51.063 417.239)">
      <text id="Department-2" data-name="Curriculum" transform="translate(0 20)" fill="#fbfbfb" font-size="18" font-family="Nunito-Regular, Nunito"><tspan x="0" y="0">Curriculum</tspan></text>
    </g>
    <g id="Layer_6" transform="translate(-579.551 229.793)">
      <g id="Group_61" data-name="Group 61" transform="translate(659.552 145.897)">
        <path id="Path_41" data-name="Path 41" d="M682.1,257.992H698.24c1.374,0,1.946.759,1.569,2.073-.709,2.472-1.407,4.948-2.132,7.415-.117.4-.087.56.345.735a6.987,6.987,0,0,1,4.324,8.04,6.759,6.759,0,0,1-4.633,4.813c-.447.152-.523.34-.521.752.013,4.368,0,8.735.011,13.1a1.419,1.419,0,0,1-.7,1.344,1.284,1.284,0,0,1-1.41-.036,1.477,1.477,0,0,1-.643-1.379c.008-4.311-.008-8.621.021-12.931a.87.87,0,0,0-.7-.987,7.033,7.033,0,0,1-4.74-5.61,4.267,4.267,0,0,1-.063-.739,1.373,1.373,0,1,1,2.741-.068,5,5,0,0,0,.294,1.624,4.085,4.085,0,0,0,7.73-.678,3.907,3.907,0,0,0-4.07-4.967c-5.379-.038-10.757-.051-16.136-.078-3.643-.018-7.286-.057-10.928-.057a4.17,4.17,0,0,0-4.244,5.206,3.979,3.979,0,0,0,4.717,2.978,3.863,3.863,0,0,0,3.41-3.952,1.371,1.371,0,0,1,1.5-1.489q5.379-.008,10.757,0a1.375,1.375,0,1,1-.006,2.742q-4.549.01-9.1,0a.619.619,0,0,0-.719.5,7.15,7.15,0,0,1-4.712,4.7.585.585,0,0,0-.48.677q.021,6.609.007,13.218a1.378,1.378,0,0,1-2.422,1.019,1.706,1.706,0,0,1-.328-1.181c.005-4.31,0-8.621.014-12.931a.723.723,0,0,0-.579-.842,7.044,7.044,0,0,1-4.8-7.573,6.684,6.684,0,0,1,3.7-4.941c.182-.1.372-.194.563-.28.746-.337.743-.334.513-1.138q-1.024-3.571-2.041-7.144a1.384,1.384,0,0,1,1.451-1.933Q673.95,257.987,682.1,257.992Zm.019,2.748q-7.067,0-14.134-.008c-.423,0-.569.048-.427.522.589,1.971,1.149,3.952,1.7,5.934.1.344.261.427.6.428q12.188.05,24.377.132c.451,0,.579-.182.682-.554.548-1.964,1.1-3.927,1.685-5.879.152-.505.036-.589-.46-.587C691.469,260.747,686.8,260.739,682.123,260.74Z" transform="translate(-661.552 -257.991)" fill="#fbfbfb" fill-rule="evenodd"/>
        <path id="Path_42" data-name="Path 42" d="M756.984,482.157c0-1.3,0-2.594,0-3.891a4.121,4.121,0,1,1,8.238-.006q.009,4.005,0,8.011a1.374,1.374,0,0,1-2.479.9,1.645,1.645,0,0,1-.267-1.03q.007-3.977,0-7.954c0-1-.421-1.43-1.367-1.43s-1.372.423-1.374,1.423c-.007,2.689,0,5.379,0,8.068a1.36,1.36,0,0,1-.942,1.414,1.32,1.32,0,0,1-1.491-.434,1.5,1.5,0,0,1-.315-1.013C756.988,484.865,756.984,483.511,756.984,482.157Z" transform="translate(-746.059 -449.289)" fill="#fbfbfb" fill-rule="evenodd"/>
        <path id="Path_43" data-name="Path 43" d="M852.987,482.105c0-1.278,0-2.556,0-3.834a4.122,4.122,0,1,1,8.24-.036c.008,2.632,0,5.265,0,7.9a1.388,1.388,0,1,1-2.745.017c0-2.67,0-5.341,0-8.011,0-.984-.443-1.4-1.409-1.387-.916.013-1.329.436-1.331,1.408-.007,2.689,0,5.379-.006,8.068a1.367,1.367,0,0,1-1.924,1.382,1.349,1.349,0,0,1-.819-1.327Q852.989,484.194,852.987,482.105Z" transform="translate(-831.075 -449.28)" fill="#fbfbfb" fill-rule="evenodd"/>
        <path id="Path_44" data-name="Path 44" d="M711.758,391.377a1.372,1.372,0,1,1-1.4-1.362A1.378,1.378,0,0,1,711.758,391.377Z" transform="translate(-703.582 -374.904)" fill="#fbfbfb" fill-rule="evenodd"/>
        <path id="Path_45" data-name="Path 45" d="M950.431,390.012a1.372,1.372,0,1,1-1.418,1.339A1.381,1.381,0,0,1,950.431,390.012Z" transform="translate(-916.111 -374.901)" fill="#fbfbfb" fill-rule="evenodd"/>
      </g>
    </g>
  </g>
</svg>
