<svg xmlns="http://www.w3.org/2000/svg" width="65" height="74.222" viewBox="0 0 65 74.222">
  <g id="faculty" transform="translate(-64.316 -580)">
    <g id="Component_48_1" data-name="Component 48 – 1" transform="translate(64.316 580)">
      <g id="faculty-2" data-name="faculty" transform="translate(12.37)">
        <path id="Path_4" data-name="Path 4" d="M366.389,526.553q8.338,0,16.676,0a1.449,1.449,0,0,1,1.432,2.126,1.418,1.418,0,0,1-1.338.773c-.967,0-1.934-.009-2.9,0a2.5,2.5,0,0,0-2.558,1.467,3.312,3.312,0,0,0,.356,3.437,2.55,2.55,0,0,0,2.1.887c.966.02,1.933,0,2.9.009a1.458,1.458,0,1,1-.011,2.9q-16.615,0-33.231,0a5.8,5.8,0,0,1,.019-11.6C355.353,526.543,360.871,526.553,366.389,526.553Zm8.835,8.7c.014-.112.024-.134.017-.149q-.084-.193-.173-.384a5.2,5.2,0,0,1,.007-4.715c.275-.556.071-.56-.386-.559q-6.884.015-13.769.006c-3.7,0-7.408-.007-11.112,0A2.539,2.539,0,0,0,347,531.717a2.885,2.885,0,0,0,1.336,3.223,3.621,3.621,0,0,0,1.643.318q12.35,0,24.7,0Z" transform="translate(-344.055 -497.742)" fill="#fbfbfb" fill-rule="evenodd"/>
        <path id="Path_5" data-name="Path 5" d="M426.03,407.2q6.041,0,12.083,0a4.667,4.667,0,0,1,4.349,3.322,4.345,4.345,0,0,1-2.239,4.828,3.957,3.957,0,0,1-1.953.553q-12.264,0-24.528,0a1.446,1.446,0,0,1-1.408-2.14,1.429,1.429,0,0,1,1.347-.76c.906,0,1.812,0,2.719,0,1.106-.006,1.558-.434,1.553-1.461s-.451-1.431-1.577-1.437c-.886-.005-1.772.005-2.658,0a1.452,1.452,0,1,1-.011-2.9Q419.867,407.2,426.03,407.2Zm-5.447,2.9a3.735,3.735,0,0,1,.124,2.424c-.166.455.034.482.4.481Q429.656,413,438.2,413c1.115,0,1.581-.517,1.506-1.623-.061-.9-.506-1.273-1.555-1.273q-8.486-.005-16.972,0Z" transform="translate(-406.349 -388.546)" fill="#fbfbfb" fill-rule="evenodd"/>
        <path id="Path_6" data-name="Path 6" d="M504.773,205.141a7.489,7.489,0,0,1-7.216-7.614c.2-3.383,3.4-5.7,6.367-4.634.479.172.5-.022.532-.429A4.985,4.985,0,0,1,507.3,188.2c1.376-.7,2.419.034,2.337,1.582a4.729,4.729,0,0,1-.977,2.494c-.134.188-.348.347.063.526a5.5,5.5,0,0,1,3.312,5.674A7.6,7.6,0,0,1,504.773,205.141Zm-4.324-7.36a4.682,4.682,0,0,0,.3,1.836,4.232,4.232,0,0,0,4.7,2.586,4.323,4.323,0,0,0,3.569-5.35,1.849,1.849,0,0,0-2.914-1.044c-1.2.847-1.317.845-2.576.063a4.79,4.79,0,0,0-.863-.428,1.416,1.416,0,0,0-2,.972A3.778,3.778,0,0,0,500.449,197.781Z" transform="translate(-484.488 -187.936)" fill="#fbfbfb" fill-rule="evenodd"/>
      </g>
      <text id="Faculty-3" data-name="Faculty" transform="translate(0 67.222)" fill="#fbfbfb" font-size="20" font-family="Nunito-Regular, Nunito"><tspan x="0" y="0">Faculty</tspan></text>
    </g>
  </g>
</svg>
