<svg xmlns="http://www.w3.org/2000/svg" width="72" height="68.71" viewBox="0 0 72 68.71">
  <g id="log-out" transform="translate(-61 -872)">
    <g id="Component_42_1" data-name="Component 42 – 1" transform="translate(61 872)">
      <g id="Log-out-2" data-name="Log-out" transform="translate(14.051)">
        <g id="Group_12" data-name="Group 12">
          <path id="Path_27" data-name="Path 27" d="M770.619,466.029q-4.976,0-9.952,0a1.446,1.446,0,0,1-1.572-2.014c.57-2.288,1.141-4.577,1.7-6.869a6.707,6.707,0,0,1,6.549-5.167q6.732-.007,13.464,0a6.594,6.594,0,0,1,6.427,5.214q.75,3.487,1.487,6.977a1.447,1.447,0,0,1-1.09,1.835,1.431,1.431,0,0,1-1.669-1.254c-.508-2.383-1-4.769-1.534-7.146a3.271,3.271,0,0,0-3.546-2.815q-6.849-.008-13.7,0a3.371,3.371,0,0,0-3.614,2.9c-.385,1.632-.8,3.256-1.207,4.882-.162.648-.169.647.522.647q8.927,0,17.855,0a1.406,1.406,0,0,1,1.413,2.046,1.426,1.426,0,0,1-1.4.766Q775.683,466.022,770.619,466.029Z" transform="translate(-749.974 -432.309)" fill="#fbfbfb" fill-rule="evenodd"/>
          <path id="Path_28" data-name="Path 28" d="M822.442,284A8.43,8.43,0,1,1,814,292.41,8.687,8.687,0,0,1,822.442,284Zm5.61,8.411a5.618,5.618,0,1,0-5.57,5.637A5.392,5.392,0,0,0,828.052,292.415Z" transform="translate(-798.527 -284.004)" fill="#fbfbfb" fill-rule="evenodd"/>
          <path id="Path_29" data-name="Path 29" d="M686.833,372.18h5.6c.214,0,.429-.008.643,0a1.4,1.4,0,1,1-.034,2.8c-1.871.012-3.742,0-5.613,0h-.638c.159.433.529.634.787.923.273.3.586.572.859.877a1.385,1.385,0,0,1,.009,1.994,1.364,1.364,0,0,1-1.991-.005c-.876-.832-1.716-1.7-2.572-2.555-.525-.523-1.055-1.04-1.575-1.568a1.411,1.411,0,0,1-.015-2.126q2.019-2.033,4.058-4.046a1.4,1.4,0,0,1,1.993-.194,1.375,1.375,0,0,1,.067,2.11c-.537.559-1.126,1.068-1.692,1.6Z" transform="translate(-681.817 -358.131)" fill="#fbfbfb" fill-rule="evenodd"/>
        </g>
      </g>
      <text id="Log-out-3" data-name="Log-out" transform="translate(0 61.71)" fill="#fbfbfb" font-size="20" font-family="Nunito-Regular, Nunito"><tspan x="0" y="0">Log-out</tspan></text>
    </g>
  </g>
</svg>
