<svg id="Group_9" data-name="Group 9" xmlns="http://www.w3.org/2000/svg" width="22.332" height="22.355" viewBox="0 0 22.332 22.355">
  <path id="Path_19" data-name="Path 19" d="M701.335,283.336a10.979,10.979,0,0,1-2.384-.265.794.794,0,1,1,.347-1.549,9.618,9.618,0,0,0,6.876-1.053,9.071,9.071,0,0,0,4.671-7.285,9.459,9.459,0,0,0-10.526-10.54,8.856,8.856,0,0,0-7.144,4.439,9.4,9.4,0,0,0,.218,10.4c.036.056.075.11.111.166a.8.8,0,1,1-1.306.915,10.875,10.875,0,0,1-1.831-4.31,11.156,11.156,0,0,1,21.45-5.89,11.228,11.228,0,0,1-10.481,14.971Z" transform="translate(-690.172 -260.981)" fill="#0C66CC" fill-rule="evenodd"/>
  <path id="Path_20" data-name="Path 20" d="M765.05,452.991h2.726a2.512,2.512,0,0,1,2.445,1.915c.2.772.429,1.535.645,2.3a.815.815,0,0,1-.477,1.084.8.8,0,0,1-1.054-.635c-.244-.839-.476-1.683-.714-2.524a.612.612,0,0,0-.714-.544q-2.859-.005-5.718,0c-.412,0-.572.135-.687.536-.485,1.692-.965,3.385-1.458,5.074a.779.779,0,0,1-1.178.5.8.8,0,0,1-.338-.981q.575-2.029,1.158-4.055c.073-.255.149-.51.218-.766a2.484,2.484,0,0,1,2.486-1.9Z" transform="translate(-753.938 -440.22)" fill="#0C66CC" fill-rule="evenodd"/>
  <path id="Path_21" data-name="Path 21" d="M813.18,339.386a3.192,3.192,0,1,1,3.206-3.154A3.341,3.341,0,0,1,813.18,339.386Zm1.609-3.2a1.595,1.595,0,1,0-1.587,1.6A1.473,1.473,0,0,0,814.788,336.186Z" transform="translate(-802.031 -328.211)" fill="#0C66CC" fill-rule="evenodd"/>
</svg>
