<svg id="notif" xmlns="http://www.w3.org/2000/svg" width="21.32" height="26.019" viewBox="0 0 21.32 26.019">
  <path id="Path_37" data-name="Path 37" d="M454.455,267.579a7.3,7.3,0,0,0,.759,3.314.9.9,0,0,0,.959.5.941.941,0,0,0,.773-.716,1.164,1.164,0,0,0-.15-.778,5.236,5.236,0,0,1,.2-4.992q1.18-2.123,2.353-4.249a6.7,6.7,0,0,0,.865-3.011,7.562,7.562,0,0,0-2.821-6.382c-.182-.153-.188-.256-.074-.441a8.394,8.394,0,0,0,.479-.88.918.918,0,0,0-.4-1.222.938.938,0,0,0-1.237.376,5.855,5.855,0,0,0-.407.743c-.121.289-.273.314-.562.224a7.559,7.559,0,0,0-8.89,3.555c-.743,1.322-1.491,2.642-2.2,3.982a5.363,5.363,0,0,1-4.295,3.063.911.911,0,0,0-.62,1.581,25.823,25.823,0,0,0,13.345,8.63.947.947,0,0,0,1.262-.622.962.962,0,0,0-.815-1.182,23.75,23.75,0,0,1-11.166-6.618c-.227-.233-.229-.321.09-.452a7.348,7.348,0,0,0,3.739-3.357c.789-1.443,1.569-2.892,2.4-4.313a5.236,5.236,0,0,1,4.173-2.827,5.615,5.615,0,0,1,5.417,2.685,5.126,5.126,0,0,1,.049,5.658q-1.148,2.074-2.3,4.147A7.351,7.351,0,0,0,454.455,267.579Zm-4.261,7.063a3.25,3.25,0,0,0,2.893-1.908.931.931,0,0,0-.937-1.323.921.921,0,0,0-.81.672.979.979,0,0,1-.678.724,1.153,1.153,0,0,1-1.44-1.439.927.927,0,0,0-.617-1.227.947.947,0,0,0-1.175.721A3.064,3.064,0,0,0,450.193,274.641Z" transform="translate(-438.898 -248.622)" fill="#0C66CC" fill-rule="evenodd"/>
  <path id="Path_38" data-name="Path 38" d="M454.455,267.579a7.348,7.348,0,0,1,.919-3.583q1.154-2.071,2.3-4.147a5.126,5.126,0,0,0-.049-5.658,5.615,5.615,0,0,0-5.417-2.685,5.236,5.236,0,0,0-4.173,2.827c-.827,1.421-1.607,2.87-2.4,4.313A7.348,7.348,0,0,1,441.9,262c-.318.132-.317.219-.09.452a23.749,23.749,0,0,0,11.166,6.618.962.962,0,0,1,.815,1.182.947.947,0,0,1-1.262.622,25.822,25.822,0,0,1-13.345-8.63.911.911,0,0,1,.62-1.581A5.363,5.363,0,0,0,444.1,257.6c.707-1.341,1.455-2.661,2.2-3.982a7.559,7.559,0,0,1,8.89-3.555c.289.089.441.064.562-.224a5.854,5.854,0,0,1,.407-.743.938.938,0,0,1,1.237-.376.918.918,0,0,1,.4,1.222,8.363,8.363,0,0,1-.479.88c-.114.185-.109.288.074.441a7.562,7.562,0,0,1,2.821,6.382,6.7,6.7,0,0,1-.865,3.011q-1.174,2.126-2.353,4.249a5.236,5.236,0,0,0-.2,4.992,1.163,1.163,0,0,1,.15.778.941.941,0,0,1-.773.716.9.9,0,0,1-.959-.5A7.3,7.3,0,0,1,454.455,267.579Z" transform="translate(-438.898 -248.622)" fill="#0C66CC" fill-rule="evenodd"/>
  <path id="Path_39" data-name="Path 39" d="M550.859,531.49a3.064,3.064,0,0,1-2.765-3.779.947.947,0,0,1,1.175-.721.927.927,0,0,1,.617,1.227,1.153,1.153,0,0,0,1.44,1.439.979.979,0,0,0,.678-.724.921.921,0,0,1,.81-.672.931.931,0,0,1,.938,1.323A3.25,3.25,0,0,1,550.859,531.49Z" transform="translate(-539.564 -505.471)" fill="#0C66CC" fill-rule="evenodd"/>
</svg>
