<svg width="72" height="69" xmlns="http://www.w3.org/2000/svg" xmlns:xlink="http://www.w3.org/1999/xlink" overflow="hidden"><defs><clipPath id="clip0"><rect x="0" y="0" width="72" height="69"/></clipPath></defs><g clip-path="url(#clip0)"><path d="M34.696 33.865C31.3787 33.865 28.0613 33.865 24.744 33.865 23.9576 34.0041 23.2073 33.4794 23.0682 32.693 23.0179 32.4083 23.054 32.115 23.172 31.851 23.742 29.563 24.313 27.274 24.872 24.982 25.5881 21.9465 28.3022 19.8051 31.421 19.815 35.909 19.8103 40.397 19.8103 44.885 19.815 47.9871 19.8249 50.6628 21.9956 51.312 25.029 51.812 27.3537 52.3077 29.6793 52.799 32.006 53.0301 32.771 52.5973 33.5785 51.8323 33.8096 51.7917 33.8219 51.7505 33.8324 51.709 33.841 50.9305 33.9772 50.1891 33.4564 50.0529 32.6779 50.0477 32.6478 50.0433 32.6175 50.04 32.587 49.532 30.204 49.04 27.818 48.506 25.441 48.2693 23.7041 46.7054 22.4626 44.96 22.626 40.394 22.6207 35.8273 22.6207 31.26 22.626 29.4766 22.4803 27.8901 23.7534 27.646 25.526 27.261 27.158 26.846 28.782 26.439 30.408 26.277 31.056 26.27 31.055 26.961 31.055 32.9124 31.055 38.864 31.055 44.816 31.055 45.5871 30.9632 46.2866 31.5139 46.3784 32.2849 46.4118 32.5658 46.3597 32.8502 46.229 33.101 45.9623 33.618 45.4082 33.9211 44.829 33.867 41.4497 33.861 38.072 33.8603 34.696 33.865Z" fill="#FBFBFB" fill-rule="evenodd"/><path d="M37.966 0.140991C42.6218 0.147644 46.3906 3.92725 46.384 8.58301 46.3773 13.2388 42.5977 17.0076 37.942 17.001 33.2862 16.9943 29.5173 13.2147 29.524 8.55896 29.524 8.5563 29.524 8.55365 29.524 8.55099 29.6688 3.95526 33.3698 0.268402 37.966 0.140991ZM43.576 8.552C43.5654 5.44928 41.0415 2.94263 37.9388 2.95325 34.8361 2.96387 32.3295 5.4877 32.3401 8.59042 32.3507 11.6931 34.8746 14.1998 37.9772 14.1892 37.9868 14.1891 37.9964 14.1891 38.006 14.189 40.9822 14.2903 43.4771 11.9598 43.5784 8.98364 43.5833 8.84113 43.5824 8.69846 43.576 8.556Z" fill="#FBFBFB" fill-rule="evenodd"/><path d="M19.067 14.194 24.667 14.194C24.881 14.194 25.096 14.186 25.31 14.194 26.0832 14.2034 26.7024 14.8378 26.693 15.611 26.6836 16.3842 26.0492 17.0034 25.276 16.994 23.405 17.006 21.534 16.994 19.663 16.994L19.025 16.994C19.184 17.427 19.554 17.628 19.812 17.917 20.085 18.217 20.398 18.489 20.671 18.794 21.2241 19.3224 21.244 20.1992 20.7155 20.7522 20.7039 20.7643 20.6921 20.7763 20.68 20.788 20.1636 21.3365 19.3004 21.3626 18.7519 20.8462 18.7302 20.8258 18.7093 20.8047 18.689 20.783 17.813 19.951 16.973 19.083 16.117 18.228 15.592 17.705 15.062 17.188 14.542 16.66 13.9513 16.1517 13.8845 15.2608 14.3928 14.6701 14.4344 14.6218 14.4792 14.5763 14.527 14.534 15.873 13.1787 17.2256 11.83 18.585 10.488 19.0693 9.88528 19.9506 9.78934 20.5533 10.2737 20.5616 10.2803 20.5698 10.2871 20.578 10.294 21.1761 10.7619 21.2817 11.6261 20.8137 12.2242 20.763 12.2891 20.7065 12.3492 20.645 12.404 20.108 12.963 19.519 13.472 18.953 14.004Z" fill="#FBFBFB" fill-rule="evenodd"/><text fill="#FBFBFB" font-family="Nunito,Nunito_MSFontService,sans-serif" font-weight="400" font-size="20" transform="matrix(1 0 0 1 0 62)">Log-out</text></g></svg>