<svg xmlns="http://www.w3.org/2000/svg" width="73" height="54.433" viewBox="0 0 73 54.433">
  <g id="students" transform="translate(-61.5 -554.041)">
    <g id="Component_52_1" data-name="Component 52 – 1" transform="translate(61.5 554.041)">
      <text id="Students-2" data-name="Students" transform="translate(0 48.433)" fill="#fbfbfb" font-size="18" font-family="Nunito-Regular, Nunito"><tspan x="0" y="0">Students</tspan></text>
      <g id="students-3" data-name="students" transform="translate(-668.08 -291.345)">
        <g id="Group_1" data-name="Group 1" transform="translate(688.081 291.345)">
          <path id="Path_7" data-name="Path 7" d="M696.887,305.365a15.185,15.185,0,0,1-9.539-3.286,1.23,1.23,0,0,1-.52-1.025c0-3.238-.012-6.477.007-9.715.006-1.041.987-1.535,1.993-1.034,1.332.663,2.657,1.339,3.987,2.007,1.067.535,2.14,1.058,3.2,1.6a1.641,1.641,0,0,0,1.587-.005q6.82-3.419,13.647-6.824a2,2,0,0,0,.229-.121c.106-.072.294-.076.271-.265-.017-.145-.168-.162-.27-.214q-2.039-1.029-4.081-2.05c-3.234-1.617-6.472-3.227-9.7-4.856a1.827,1.827,0,0,0-1.778-.007q-6.908,3.475-13.829,6.927a1.3,1.3,0,0,1-1.873-.469,1.275,1.275,0,0,1,.76-1.773q6.962-3.488,13.931-6.961a4.09,4.09,0,0,1,3.763-.01c4.667,2.311,9.319,4.655,13.978,6.984a2.686,2.686,0,0,1-.007,4.909c-1.8.9-3.584,1.808-5.391,2.683a.735.735,0,0,0-.481.788c.019,2.7,0,5.4.017,8.1a1.69,1.69,0,0,1-.695,1.47A14.892,14.892,0,0,1,696.887,305.365Zm7.4-8.372c0-1.057-.014-2.113.007-3.169.008-.417-.116-.42-.439-.256-1.667.846-3.341,1.677-5.014,2.511a4.319,4.319,0,0,1-4.043.013q-2.535-1.257-5.061-2.532c-.283-.143-.422-.179-.42.229.013,2.1.008,4.192,0,6.287a.521.521,0,0,0,.227.476,12.2,12.2,0,0,0,14.419.146.685.685,0,0,0,.327-.64C704.277,299.037,704.287,298.015,704.287,296.993Z" transform="translate(-680.081 -276.831)" fill="#fbfbfb" fill-rule="evenodd"/>
          <path id="Path_8" data-name="Path 8" d="M696.98,367.859c0-1.506,0-3.013,0-4.519a1.262,1.262,0,0,1,1.242-1.428l13.729-1.839a1.3,1.3,0,0,1,1.611,1.077c.109.7-.419,1.289-1.265,1.4-4.131.552-8.261,1.11-12.394,1.647-.374.049-.436.2-.435.529.01,2.614.005,5.229.006,7.843a1.221,1.221,0,0,1-.693,1.184,1.185,1.185,0,0,1-1.319-.128,1.264,1.264,0,0,1-.486-1.093C696.983,370.975,696.98,369.417,696.98,367.859Z" transform="translate(-695.222 -351.404)" fill="#fbfbfb" fill-rule="evenodd"/>
        </g>
      </g>
    </g>
  </g>
</svg>
