<svg width="195" height="161" xmlns="http://www.w3.org/2000/svg">

 <g>
  <title>Layer 1</title>
  <g stroke="null" id="svg_1">
   <path stroke="null" id="svg_2" d="m97.60145,20.6641c0,1.65656 0,2.60072 0,3.54429c0,7.96138 -0.01074,15.92277 0.0017,23.88415c0.01018,6.01999 2.46668,8.53932 8.29691,8.53991c23.46796,0.00177 46.93535,0.0342 70.40274,-0.05543c2.24048,-0.00885 2.79297,0.62276 2.7777,2.91976c-0.09953,15.03758 -0.05372,30.07575 -0.04185,45.11392c0.00057,1.07567 -0.03393,2.1885 0.20075,3.22112c0.80413,3.5378 4.04497,5.82537 7.43284,5.36774c3.49757,-0.47297 5.91732,-3.39981 5.9241,-7.42237c0.03054,-18.18321 0.0181,-36.36642 0.01018,-54.54963c-0.00283,-6.26649 -2.39373,-8.75221 -8.37665,-8.7528c-23.37352,-0.00118 -46.74704,-0.03479 -70.11999,0.05543c-2.27554,0.00885 -3.02878,-0.45999 -2.99259,-3.00292c0.14929,-10.51433 0.02997,-21.0328 0.07747,-31.54949c0.01414,-3.11497 -0.9472,-5.60717 -3.63895,-7.11394c-2.70984,-1.51679 -5.24664,-0.9135 -7.68392,0.85629c-32.08211,23.29796 -64.17949,46.57468 -96.25764,69.87854c-4.76541,3.46173 -4.82083,8.86603 -0.14759,12.44276c31.9741,24.47388 63.968,48.91946 95.93305,73.40572c2.56338,1.96322 5.18331,2.8142 8.13688,1.22546c2.85744,-1.53743 3.67684,-4.18887 3.66213,-7.3858c-0.05372,-11.69557 0.05825,-23.39231 -0.08313,-35.08611c-0.03054,-2.53349 0.70291,-3.02474 2.9875,-3.01058c16.86979,0.10438 33.74014,0.06841 50.61049,0.04659c4.49397,-0.00531 7.46903,-2.80654 7.52728,-6.9612c0.05994,-4.27025 -2.97958,-7.17822 -7.60758,-7.18176c-19.69782,-0.01474 -39.39563,-0.01474 -59.09345,-0.00177c-5.40724,0.00354 -7.92595,2.65615 -7.93613,8.32761c-0.0164,9.33723 0.00622,18.67505 -0.02545,28.01169c-0.00283,0.80616 0.37096,1.73676 -0.45692,2.54528c-0.47388,-0.32258 -0.94777,-0.61155 -1.38772,-0.94829c-24.99592,-19.11204 -49.97374,-38.25061 -75.01151,-57.3025c-2.03577,-1.54864 -1.56585,-2.20973 0.15438,-3.44875c14.2623,-10.27313 28.48162,-20.61173 42.71168,-30.93381c11.13003,-8.07284 22.25893,-16.14981 34.01327,-24.67911z" fill="#ECC429" clip-rule="evenodd" fill-rule="evenodd"/>
   <path stroke="null" id="svg_3" d="m97.60145,20.6641c-11.75434,8.52871 -22.88324,16.60627 -34.01384,24.6797c-14.23006,10.32149 -28.44938,20.66067 -42.71168,30.93381c-1.72023,1.23903 -2.19015,1.89953 -0.15438,3.44875c25.03833,19.05189 50.01559,38.19046 75.01151,57.3025c0.43995,0.33674 0.91384,0.6263 1.38772,0.94829c0.82732,-0.80852 0.45409,-1.73912 0.45692,-2.54528c0.03167,-9.33664 0.00905,-18.67446 0.02545,-28.01169c0.01018,-5.67145 2.52888,-8.32348 7.93613,-8.32761c19.69782,-0.01297 39.39563,-0.01297 59.09345,0.00177c4.62799,0.00354 7.66752,2.91151 7.60758,7.18176c-0.05881,4.15466 -3.0333,6.95589 -7.52728,6.9612c-16.87035,0.02182 -33.7407,0.05779 -50.61049,-0.04659c-2.28516,-0.01356 -3.01804,0.47768 -2.9875,3.01058c0.14137,11.6938 0.02941,23.39054 0.08313,35.08611c0.0147,3.19753 -0.8047,5.84837 -3.66213,7.3858c-2.95357,1.58874 -5.57293,0.73775 -8.13688,-1.22546c-31.96449,-24.48627 -63.95838,-48.93243 -95.93305,-73.40572c-4.67323,-3.57673 -4.61782,-8.98103 0.14759,-12.44276c32.07815,-23.30385 64.17553,-46.57999 96.25764,-69.87854c2.43784,-1.76979 4.97464,-2.37308 7.68392,-0.85629c2.69175,1.50677 3.65308,3.99897 3.63895,7.11394c-0.0475,10.51669 0.07125,21.03456 -0.07747,31.54949c-0.03619,2.54292 0.71705,3.01176 2.99259,3.00292c23.37295,-0.09023 46.74647,-0.05661 70.11999,-0.05543c5.98292,0 8.37382,2.48572 8.37665,8.7528c0.00792,18.18321 0.02036,36.36642 -0.01018,54.54963c-0.00679,4.02256 -2.4271,6.9494 -5.9241,7.42237c-3.3873,0.45763 -6.62814,-1.82994 -7.43284,-5.36774c-0.23468,-1.03262 -0.20018,-2.14545 -0.20075,-3.22112c-0.01188,-15.03817 -0.05825,-30.07634 0.04185,-45.11392c0.01527,-2.2976 -0.53722,-2.92861 -2.7777,-2.91976c-23.46739,0.08964 -46.93535,0.0572 -70.40274,0.05543c-5.83023,-0.00059 -8.28673,-2.51993 -8.29691,-8.53991c-0.01244,-7.96138 -0.00226,-15.92277 -0.0017,-23.88415c0.00057,-0.94416 0.00057,-1.88832 0.00057,-3.54488z" fill="#ECC429" clip-rule="evenodd" fill-rule="evenodd"/>
  </g>
 </g>
</svg>