<svg width="66" height="73" viewBox="0 0 87 53" xmlns="http://www.w3.org/2000/svg" xmlns:xlink="http://www.w3.org/1999/xlink" overflow="visible">

    <g clip-path="url(#clip0)"><text fill="#fff" font-size="18px" font-family="Nunito,Nunito_MSFontService,sans-serif" transform="matrix(1 0 0 1 0 57)">Classroom</text>
        <path d="M43.093 27.859 26.166 27.859C25.026 27.859 24.541 27.385 24.541 26.265 24.541 18.9683 24.541 11.672 24.541 4.37601 24.541 3.16901 24.997 2.714 26.205 2.71201 27.749 2.71201 29.293 2.71201 30.837 2.71201 31.567 2.61653 32.2361 3.13091 32.3316 3.86087 32.4271 4.59085 31.9127 5.26001 31.1827 5.35548 31.072 5.36996 30.9598 5.37048 30.849 5.35699 29.838 5.362 28.826 5.38301 27.817 5.34801 27.334 5.33101 27.173 5.44101 27.175 5.966 27.197 11.166 27.189 16.366 27.189 21.566 27.189 22.614 27.202 23.666 27.181 24.709 27.174 25.069 27.237 25.217 27.65 25.217 37.924 25.205 48.198 25.205 58.472 25.217 58.857 25.217 58.962 25.117 58.961 24.73 58.949 18.426 58.949 12.122 58.961 5.81801 58.961 5.47301 58.889 5.345 58.512 5.349 56.6006 5.36833 54.6893 5.36835 52.778 5.349 52.401 5.349 52.305 5.472 52.333 5.819 52.477 7.60701 51.918 8.041 50.091 8.01901 45.203 7.968 40.313 8.002 35.425 8.00101 34.284 8.00101 33.809 7.53 33.808 6.401 33.808 4.80101 33.808 3.201 33.808 1.60101 33.808 0.549011 34.308 0.0579987 35.371 0.0579987 40.517 0.0579987 45.663 0.0579987 50.809 0.0579987 51.5478-0.0464935 52.2314 0.467712 52.3359 1.2065 52.3536 1.33171 52.3536 1.45879 52.336 1.584 52.345 2.703 52.345 2.70401 53.436 2.70401 55.6413 2.70401 57.8467 2.70401 60.052 2.70401 60.7929 2.59123 61.485 3.10045 61.5977 3.84137 61.6192 3.98251 61.6183 4.12616 61.595 4.26701 61.595 11.6003 61.595 18.9337 61.595 26.267 61.595 27.367 61.113 27.849 60.016 27.849ZM43.045 5.35901C45.102 5.35901 47.159 5.34801 49.215 5.36801 49.615 5.36801 49.715 5.25401 49.696 4.87401 49.6664 4.30539 49.6664 3.73563 49.696 3.16701 49.713 2.80901 49.604 2.70001 49.239 2.70401 47.384 2.722 45.53 2.71201 43.675 2.71201 41.435 2.71201 39.194 2.724 36.954 2.701 36.529 2.701 36.42 2.82301 36.445 3.22601 36.4786 3.77617 36.4786 4.32787 36.445 4.87801 36.422 5.26401 36.54 5.37201 36.93 5.36801 38.967 5.347 41.006 5.358 43.047 5.358Z" fill="#FBFBFB" fill-rule="evenodd" />
        <path d="M49.405 29.184C49.9788 29.156 50.4985 29.5208 50.6671 30.07 51.305 31.964 51.933 33.861 52.522 35.77 52.7471 36.4622 52.3684 37.2059 51.6762 37.431 50.9839 37.6561 50.2404 37.2774 50.0153 36.5851 50.0125 36.5765 50.0097 36.5677 50.0071 36.559 49.39 34.717 48.783 32.871 48.199 31.018 47.9124 30.3507 48.221 29.5774 48.8883 29.2907 49.0516 29.2206 49.2274 29.1843 49.4051 29.184Z" fill="#FBFBFB" fill-rule="evenodd" />
        <path d="M38.039 30.505C37.9713 30.9771 37.8439 31.4388 37.66 31.879 37.1533 33.449 36.643 35.0176 36.129 36.585 35.9772 37.138 35.4755 37.522 34.902 37.524 34.3899 37.5582 33.9088 37.2759 33.689 36.812 33.4991 36.3872 33.4991 35.9017 33.689 35.477L34.839 31.977C35.057 31.315 35.245 30.643 35.501 29.996 35.7314 29.4056 36.3568 29.0702 36.976 29.205 37.5958 29.328 38.0415 29.8731 38.039 30.505Z" fill="#FBFBFB" fill-rule="evenodd" />
    </g>
</svg>