<svg xmlns="http://www.w3.org/2000/svg" width="40.5428571429" height="32.2" viewBox="0 0 38.411 30.5">
  <g id="Group_134" data-name="Group 134" transform="translate(-25.205 -11.499)">
    <g id="back" transform="translate(25.205 11.499)">
      <path id="Path_37" data-name="Path 37" d="M383.866,250.923v.678q0,2.284,0,4.567c0,1.151.492,1.633,1.655,1.633,4.68,0,9.36.007,14.039-.011.447,0,.557.119.554.558-.02,2.875-.011,5.751-.008,8.627a2.7,2.7,0,0,0,.04.616,1.351,1.351,0,0,0,2.664-.393q.009-5.215,0-10.431c0-1.2-.477-1.674-1.67-1.674-4.661,0-9.322-.007-13.983.011-.454,0-.6-.088-.6-.574.03-2.011.006-4.022.015-6.033a1.393,1.393,0,0,0-.726-1.36,1.373,1.373,0,0,0-1.532.164q-9.6,6.683-19.2,13.362a1.356,1.356,0,0,0-.029,2.379q9.564,7.02,19.131,14.037a1.439,1.439,0,0,0,1.623.234,1.41,1.41,0,0,0,.73-1.412c-.011-2.236.012-4.473-.017-6.709-.006-.484.14-.578.6-.576,3.364.02,6.728.013,10.093.009a1.36,1.36,0,1,0-.016-2.7q-5.892,0-11.784,0a1.386,1.386,0,0,0-1.583,1.592c0,1.785,0,3.571-.005,5.356,0,.154.074.332-.091.487-.094-.062-.189-.117-.277-.181q-7.477-5.482-14.958-10.957c-.406-.3-.312-.423.031-.659q4.266-2.947,8.517-5.915Z" transform="translate(-364.403 -246.972)" fill="#ecc429" fill-rule="evenodd"/>
      <path id="Path_38" data-name="Path 38" d="M383.865,250.924l-6.783,4.719q-4.257,2.961-8.517,5.915c-.343.237-.437.363-.031.659q7.49,5.465,14.958,10.957c.088.064.182.12.277.181.165-.155.091-.333.091-.487.006-1.785,0-3.571.005-5.356a1.386,1.386,0,0,1,1.583-1.592q5.892,0,11.784,0a1.36,1.36,0,1,1,.016,2.7c-3.364,0-6.728.011-10.093-.009-.456,0-.6.091-.6.576.028,2.236.006,4.473.017,6.709a1.41,1.41,0,0,1-.73,1.412,1.439,1.439,0,0,1-1.623-.234q-9.561-7.023-19.131-14.037a1.356,1.356,0,0,1,.029-2.379q9.6-6.684,19.2-13.362a1.373,1.373,0,0,1,1.532-.164,1.393,1.393,0,0,1,.726,1.36c-.009,2.011.014,4.022-.015,6.033-.007.486.143.576.6.574,4.661-.017,9.322-.011,13.983-.011,1.193,0,1.67.475,1.67,1.674q0,5.215,0,10.431a1.352,1.352,0,0,1-2.664.393,2.707,2.707,0,0,1-.04-.616c0-2.876-.012-5.751.008-8.627,0-.439-.107-.56-.554-.558-4.68.017-9.36.011-14.039.011-1.163,0-1.653-.482-1.655-1.633q0-2.284,0-4.567C383.865,251.422,383.865,251.241,383.865,250.924Z" transform="translate(-364.402 -246.973)" fill="#ecc429" fill-rule="evenodd"/>
    </g>
  </g>
</svg>
